<?xml version="1.0" encoding="UTF-8"?>
<svg id="Layer_1" data-name="Layer 1" xmlns="http://www.w3.org/2000/svg" viewBox="0 0 313.63 297.19">
  <defs>
    <style>
      .cls-1, .cls-2 {
        fill: #0dc5d7;
      }

      .cls-2 {
        fill-rule: evenodd;
      }
    </style>
  </defs>
  <path class="cls-2" d="M104.01,148.84c0-26.28,14.35-48.94,35.54-61.55.61-.36.61-1.25,0-1.6l-6.36-3.69c-1.16-.67-2.6-.66-3.72.08-22.55,14.78-37,39.32-37,66.76s14.54,52.12,37.2,66.89c1.12.73,2.55.74,3.71.07l6.37-3.7c.61-.35.6-1.24,0-1.6-21.3-12.59-35.74-35.3-35.74-61.66ZM129.65,148.84c0,22.08,16.43,41.17,39.06,45.48.83.16,1.68,0,2.41-.43l23.09-13.4c1.78-1.03,4.04-.38,5.12,1.38,2.99,4.87,6.62,9.38,10.78,13.44,1.81,1.76,1.55,4.83-.64,6.1l-75.78,43.98c-1.07.62-2.38.65-3.48.09-7.6-3.94-15.02-8.06-21.84-13.34-25.2-19.5-41.56-49.44-41.56-83.28,0-41.02,24.02-76.31,58.7-94.23l4.45-2.3c1.1-.57,2.41-.54,3.49.09l75.87,44.03c2.18,1.27,2.45,4.32.65,6.09-4.15,4.06-7.77,8.58-10.74,13.46-1.07,1.76-3.34,2.42-5.12,1.38l-23.3-13.52c-.73-.43-1.6-.59-2.43-.42-22.46,4.43-38.74,23.45-38.74,45.42Z"/>
  <path class="cls-1" d="M149.54,50.58c-2.69-1.56-2.3-5.51.68-6.36,9.3-2.67,19.09-4.3,29.22-4.77,1.35-.06,2.69.28,3.86.96l61.42,35.65c2.99,1.74,2.14,6.53-1.2,7.44-6.92,1.9-13.42,4.67-19.34,8.17-1.16.69-2.6.72-3.77.04l-70.87-41.13Z"/>
  <path class="cls-2" d="M183.64,257.32c-1.17.68-2.5,1.02-3.84.96-10.16-.44-19.99-2.06-29.33-4.72-2.99-.85-3.38-4.8-.69-6.36l70.81-41.09c1.16-.68,2.6-.65,3.76.04,5.94,3.49,12.46,6.25,19.4,8.13,3.35.91,4.21,5.71,1.21,7.45l-61.33,35.59Z"/>
</svg>