<?xml version="1.0" encoding="UTF-8"?>
<svg id="Layer_1" data-name="Layer 1" xmlns="http://www.w3.org/2000/svg" viewBox="0 0 279.99 302.3">
  <path d="M42.21,220.8c-9.28-10.89-25.9-28.42-21.7-40.84,17.22-50.91,65.58.87,119.52-31.1l90.4-53.57c-27.12-10.46-62.09-12.39-85.04.76l-78.98,45.26c-12.73,7.29-31.13,6.34-42.73-6.16-8.26-8.9-2.78-35.16,9.77-42.27l111.06-62.95c34.42-19.51,85.82-15.7,114.31,14.43,11.39,12.04-5.56,41.19-18.02,47.76,6.6,8.75,18.43,25.05,22.62,34.68,4.19,9.64-17.86,28.7-23.86,33.96l22.06,25.31c6.29,7.21-5.53,32.37-15.9,38.17l-114.89,64.28c-36.96,20.68-116.66-4.07-112.18-31.69,1.62-9.98,16.08-26.95,23.55-36.01ZM160.91,206.23l70.48-43.85c-65.2-28.31-121.03,24.1-178.78,56.62,37.85,18.35,74.45,8.3,108.3-12.76Z"/>
</svg>