<?xml version="1.0" encoding="UTF-8"?>
<svg id="Layer_1" data-name="Layer 1" xmlns="http://www.w3.org/2000/svg" viewBox="0 0 313.63 297.19">
  <defs>
    <style>
      .cls-1 {
        fill: #e03c31;
      }
    </style>
  </defs>
  <path id="path4538" class="cls-1" d="M138.83,158.87l11.04-19.13c.64-1.1,1.54-2.03,2.63-2.69,1.07-.65,2.29-1.03,3.53-1.1h0s.06,0,.06,0c.71-.03,1.44.03,2.15.21.7.17,1.38.44,2.01.8,1.15.67,2.11,1.63,2.78,2.79l.92,1.59h0s10.55,18.27,10.55,18.27c.51.89.84,1.85.96,2.86.12.97.05,1.95-.2,2.91-.25.95-.68,1.83-1.28,2.62-.61.81-1.37,1.48-2.26,1.99-1.15.66-2.46,1.01-3.79,1.01h-22.95c-1.02.01-2.02-.19-2.96-.59-.9-.38-1.71-.93-2.41-1.63-.7-.7-1.25-1.51-1.63-2.41-.4-.93-.6-1.93-.6-2.96,0-1.33.36-2.64,1.03-3.8l.42-.74h0ZM98.45,173.94l.04-.02c-1.16,2.34-1.78,4.92-1.78,7.54,0,4.54,1.77,8.81,4.98,12.02,3.21,3.21,7.48,4.98,12.02,4.98h85.19l1.2-.02-.02-.02c2.67-.13,5.29-.9,7.62-2.24,3.93-2.27,6.74-5.93,7.92-10.32,1.17-4.39.57-8.97-1.7-12.9l-42.6-73.78-.49-.8h0c-1.47-2.33-3.48-4.29-5.88-5.68-2.83-1.63-6.04-2.42-9.3-2.26l-.47.02h0c-5.62.43-10.62,3.57-13.45,8.47l-42.59,73.77-.69,1.24Z"/>
  <path id="path4542" class="cls-1" d="M217.86,213.1c-.55-.09-1.12-.14-1.69-.16l-106.6-.02c-.88,0-1.25-.04-2.07-.12l-.26-.03c-.97-.1-1.95-.25-2.91-.44-.96-.2-1.92-.44-2.85-.73-.93-.29-1.86-.63-2.76-1.01-.9-.38-1.79-.81-2.65-1.28-.86-.47-1.7-.98-2.51-1.54-.8-.55-1.59-1.15-2.34-1.78-.75-.63-1.47-1.31-2.15-2.01-.68-.7-1.34-1.45-1.94-2.21-.6-.76-1.18-1.56-1.71-2.39-.53-.82-1.02-1.68-1.46-2.55-.44-.87-.85-1.78-1.2-2.68-.36-.91-.67-1.85-.93-2.79-.26-.94-.48-1.9-.64-2.87-.16-.96-.28-1.94-.35-2.92-.05-.7-.07-1.4-.07-2.08,0-.98.05-1.97.15-2.94.1-.98.25-1.95.44-2.91.19-.96.44-1.92.73-2.85.29-.93.63-1.86,1.01-2.76.38-.9.81-1.8,1.27-2.63.12-.19.23-.38.35-.57l.14-.28h0s52.62-91.15,52.62-91.15l.41-.74h-.03c3.18-6.35,1.04-14.05-5.1-17.82-2.25-1.38-4.82-2.08-7.46-2.03l-1.36.03.08.06c-4.18.47-7.91,2.82-10.15,6.46-.01.02-.03.05-.04.07l-52.91,91.63-.21.46h0c-4.83,8.52-7.39,18.18-7.41,27.98,0,31.37,25.52,56.89,56.89,56.89h105.96v-.02c6.57-.22,12.03-5,13.08-11.54,1.2-7.47-3.9-14.53-11.38-15.74"/>
  <path id="path4546" class="cls-1" d="M258.88,167.04h.03l-59.68-103.36c-2.38-4.12-6.63-6.69-11.38-6.86h-.02c-1.85-.06-3.66.23-5.38.89-3.43,1.31-6.14,3.87-7.64,7.21-1.5,3.35-1.61,7.08-.3,10.51.22.56.47,1.11.76,1.64h-.01s59.44,102.97,59.44,102.97l.33.54h.01c2.6,4.07,6.98,6.33,11.52,6.33,2.22,0,4.47-.54,6.57-1.68,6.52-3.53,9.03-11.6,5.75-18.2"/>
</svg>