<?xml version="1.0" encoding="UTF-8"?>
<svg id="Layer_1" data-name="Layer 1" xmlns="http://www.w3.org/2000/svg" viewBox="0 0 313.63 297.19">
  <defs>
    <style>
      .cls-1 {
        fill: #3f3f3f;
        opacity: .6;
      }

      .cls-1, .cls-2 {
        isolation: isolate;
      }

      .cls-2 {
        fill: #a8a8a8;
        opacity: .4;
      }
    </style>
  </defs>
  <path d="M280.75,94.02c0-13.43-16.28-20.17-25.83-10.7L123.97,213.26c-1.87,1.86-.55,5.04,2.09,5.04h18.92c.9,0,1.79-.07,2.68-.2l29.2-4.45c18.49-2.81,37.3-2.7,55.75.34l24.71,4.07c.96.16,1.93.24,2.89.24h13.3c4,0,7.23-3.23,7.23-7.21v-117.06Z"/>
  <path class="cls-1" d="M78.34,218.25c-2.63,0-3.96-3.17-2.09-5.03l90.55-90.39c5.29-5.29,13.89-5.29,19.18,0,5.3,5.28,5.3,13.84,0,19.12l-72.46,72.22c-2.63,2.62-6.2,4.09-9.92,4.09h-25.27Z"/>
  <path class="cls-2" d="M39.9,218.27c-6.24,0-9.37-7.52-4.96-11.93l55.03-54.96c5.29-5.29,13.88-5.29,19.18,0,5.29,5.28,5.29,13.83,0,19.11l-43.83,43.69c-2.63,2.62-6.2,4.09-9.92,4.09h-15.5Z"/>
</svg>