<?xml version="1.0" encoding="UTF-8"?>
<svg id="Layer_1" data-name="Layer 1" xmlns="http://www.w3.org/2000/svg" viewBox="0 0 515.1 511.66">
  <defs>
    <style>
      .cls-1 {
        fill: #1f28f5;
      }
    </style>
  </defs>
  <path class="cls-1" d="M78.59,401.11l25.33,29.33,126.89-126.89c1.6-1.6,4.34-.43,4.29,1.83l-3.86,177.72h46.66l-7.34-176.88c-.42-10.14-4.64-19.75-11.81-26.92l-29.63-29.63c-7.2-7.2-16.86-11.42-27.05-11.82l-174.81-6.72v40l172.05,1.93c2.22.02,3.32,2.7,1.76,4.28l-122.48,123.77Z"/>
  <path class="cls-1" d="M429.23,104.46l-25.33-29.33-126.89,126.89c-1.6,1.6-4.34.43-4.29-1.83l3.86-177.72h-46.66l7.34,176.88c.42,10.14,4.64,19.75,11.81,26.92l29.63,29.63c7.2,7.2,16.86,11.42,27.05,11.82l174.81,6.72v-40l-172.05-1.93c-2.22-.02-3.32-2.7-1.76-4.28l122.48-123.77Z"/>
</svg>