<?xml version="1.0" encoding="UTF-8"?>
<svg id="Layer_1" data-name="Layer 1" xmlns="http://www.w3.org/2000/svg" viewBox="0 0 313.63 297.19">
  <defs>
    <style>
      .cls-1 {
        fill: #1979e4;
        fill-rule: evenodd;
      }
    </style>
  </defs>
  <path class="cls-1" d="M65.34,179.65l-32.59-47.92h-.68v47.92h-10.22v-63.37h11.58l32.59,48.04h.57v-48.04h10.11v63.37h-11.36ZM121.78,128.89h10.22l13.97,40.09h.11l14.19-40.09h9.99l-18.96,50.76h-11.02l-18.51-50.76ZM119.4,179.65h10.22l-18.51-50.65h-11.01l-18.96,50.65h9.99l14.31-40.2h.11l13.85,40.2Z"/>
  <path class="cls-1" d="M192.75,179.65l-23.05-63.37h10.9l18.06,51.44h.57l18.4-51.44h10.79l-23.62,63.37h-12.04ZM229.43,128.89h9.88v50.65h-9.88v-50.65ZM260.43,179.88c2.84.68,5.79,1.02,8.97,1.02,2.53,0,5.06-.29,7.77-.61.21-.02.42-.05.63-.07,2.61-.57,5-1.59,7.04-2.84,2.05-1.36,3.75-2.95,5-5,1.25-1.93,1.93-4.43,1.93-7.27,0-1.25-.23-2.61-.68-3.97-.46-1.36-1.14-2.61-2.04-3.75-.91-1.14-2.05-2.16-3.41-3.07-1.36-.91-2.95-1.59-4.77-2.16-.35-.12-.86-.24-1.51-.39-.6-.14-1.31-.3-2.12-.52-.96-.26-1.92-.48-2.91-.7-.76-.17-1.53-.35-2.32-.55-1.07-.21-2.09-.47-3.07-.72-.58-.15-1.15-.29-1.7-.42-.55-.13-1.01-.24-1.37-.33-.62-.15-.98-.24-1.12-.24-1.93-.45-3.52-1.25-4.77-2.27-1.25-1.02-1.82-2.38-1.82-4.2,0-1.25.23-2.38.91-3.18.57-.91,1.36-1.59,2.38-2.04,1.02-.45,2.16-.79,3.29-1.02,1.25-.23,2.39-.34,3.52-.34,3.29,0,6.13.68,8.29,2.04,2.16,1.36,3.41,3.75,3.63,6.93h9.88v-.11c0-2.61-.57-5-1.7-7.04-1.14-2.04-2.72-3.75-4.66-5.11-1.93-1.36-4.2-2.38-6.81-3.07-2.5-.68-5.34-1.02-8.18-1.02-2.5,0-5,.34-7.38.91-2.5.57-4.66,1.48-6.59,2.73-1.93,1.25-3.52,2.84-4.65,4.66-1.14,1.93-1.7,4.2-1.7,6.7,0,1.36.23,2.73.57,3.97.45,1.25,1.14,2.5,2.04,3.63.91,1.14,2.16,2.16,3.75,3.07,1.59.91,3.63,1.7,6.02,2.27,3.75.91,7.04,1.7,9.65,2.27.51.13,1,.26,1.49.38,2.03.52,3.88,1,5.44,1.55,1.02.34,2.16,1.02,3.07,1.93.91.91,1.36,2.27,1.36,4.2,0,.91-.11,1.82-.57,2.73-.46.91-1.14,1.7-2.05,2.38-.91.68-2.16,1.25-3.63,1.7-1.48.45-3.29.68-5.45.68-1.93,0-3.75-.11-5.45-.57-1.7-.45-3.18-1.02-4.43-1.93-1.36-.91-2.39-2.04-3.07-3.41-.79-1.36-1.14-3.07-1.14-5v-.11h-9.88v.11c0,3.18.68,5.91,1.93,8.18,1.25,2.27,2.95,4.2,5,5.68,2.16,1.48,4.54,2.61,7.38,3.29Z"/>
</svg>