<?xml version="1.0" encoding="UTF-8"?>
<svg id="Layer_1" data-name="Layer 1" xmlns="http://www.w3.org/2000/svg" viewBox="0 0 313.63 297.19">
  <defs>
    <style>
      .cls-1 {
        fill: #1b072d;
        fill-rule: evenodd;
      }
    </style>
  </defs>
  <path class="cls-1" d="M239.83,105.2c.56-3.29,1.01-6.56,1.13-9.67-.08-2.25-.3-4.27-.54-6.29-.43-3.68-1.38-7.2-2.71-10.65-6.15-15.92-21.62-26.56-34.34-28.09-2.79-.34-5.58-.58-8.38-.71-2.27-.11-4.54.09-6.81.29-.24.02-.47.04-.71.06-2.9.25-5.76.71-8.49,1.7-11.52,4.21-20.36,11.52-26.2,22.24-3.07,5.65-4.82,11.72-5.3,18.07-.27,3.6-.2,7.26.52,10.87.66,3.32,1.39,6.61,2.64,9.77,1.87,4.72,5.06,8.57,8.42,12.3,6.44,7.13,13.32,13.86,20.19,20.59.43.42.86.84,1.28,1.26,4.17,4.08,8.34,8.17,12.7,12.05.67.6.93.9,1.2.91.27,0,.53-.3,1.23-.93,2.51-2.27,5-4.57,7.44-6.93l.14-.13c9-8.73,17.99-17.45,26.41-26.74,5.22-5.76,8.86-12.23,10.18-19.95ZM247.81,247.42h1.24c-.12-.13-.22-.23-.3-.33-.15-.16-.27-.29-.39-.41-19.84-20-39.86-39.82-59.91-59.61-4.18-4.12-8.37-8.23-12.56-12.34-10.54-10.33-21.07-20.65-31.38-31.21-5.34-5.47-10.32-11.17-13.46-18.23-1.97-4.43-3.72-8.92-4.88-13.63-.34-1.38-.62-2.78-.89-4.18-.4-2.03-.8-4.05-1.4-6.04-.44-1.46-.45-1.47-1.58-.45-4.07,3.65-7.95,7.51-11.82,11.36-.23.23-.46.46-.69.69-11.86,11.79-23.64,23.66-35.08,35.86-.27.29-.55.58-.83.87-1.43,1.49-2.86,2.99-3.83,4.85-3.29,6.36-5.27,13.04-5.46,20.22-.15,5.33.37,10.56,1.95,15.67,1.52,4.92,3.46,9.61,6.91,13.58,1.78,2.04,3.58,4.06,5.46,6.01,8.05,8.35,16.3,16.51,24.54,24.68,4,3.96,8,7.93,11.98,11.91.55.55,1.1.75,1.87.75,39.78-.01,79.55-.01,119.33-.01h11.18Z"/>
</svg>