<?xml version="1.0" encoding="UTF-8"?>
<svg id="Layer_1" data-name="Layer 1" xmlns="http://www.w3.org/2000/svg" viewBox="0 0 754.99 195.77">
  <path d="M170.3,147.58c34.41,17.25,49.2-10.09,56.88-4.86,12.64,8.6-23.87,31.15-57.01,18.15-15.85-6.22-30.09-21.66-31.99-42.49-2.88-31.6,18.41-57.01,48.07-57.99,30.01-.99,54.79,23.22,50.79,55.37l-85.16.03c1.1,16.31,9.54,27.34,18.43,31.8ZM224.87,106.18c-3.62-26.37-20.12-34.33-39.32-33.66-16.65.57-32.35,12.27-33.52,33.82l72.84-.15Z"/>
  <path d="M334.73,146.3l8.27-4.86c1.93-1.13,5.92,7.58,3.99,9.65-10.64,11.42-37.37,18.25-55.65,11.02-16.32-6.45-31.16-19.64-34.09-40.83-4.35-31.42,14.89-58.29,45.09-60.81,30.58-2.55,57.23,22.13,53.41,55.15l-85.31.27c1.11,15.65,9.48,26.75,18.3,31.53,15.61,8.46,32.72,6.68,45.99-1.12ZM343.44,106.28c-3.23-26.39-20.31-34.25-39.2-33.78-16.93.43-32.53,12.27-33.53,33.56l72.73.21Z"/>
  <path d="M540.33,107.49l46.74-2.13c2.33-4.56,1.09-17.7-2.54-22.93-15.9-22.94-54.73.16-61.93-1.68-13.93-3.57,21.09-27.55,52.51-18.92,18.46,5.08,27.03,18.75,26.97,36.72l-.24,64.07c-2.25.64-9.85,2.75-10.44.9l-3.72-11.64c-16.66,14.34-41.06,18.74-60.59,4.9-8.58-6.08-12.33-19.18-9.88-29.14,1.85-7.53,12.02-19.64,23.13-20.15ZM587.95,115.48l-41.58,1.15c-9.64.27-18.23,11.65-16.97,19.84,1.37,8.87,10.56,16.78,20.66,17.56,11.68.9,23.74-2.07,31.14-9.12,7.48-7.13,8.27-17.32,6.75-29.43Z"/>
  <path d="M442.27,157.75c-22.34,12.28-51.84,9.06-69.63-5.96-1.85-1.56,6.71-8.22,8.81-7.07,20.72,11.26,59.54,13.68,60.38-8.25,1.06-27.5-70.82-6.81-66.71-48.86,2.93-29.93,48.27-33.76,74.42-18.57,2.52,1.46-3.28,10.63-6.09,9.38-21.9-9.75-56.58-8.7-55.28,11.71.28,4.31,6.94,12.22,11.64,13.3l34.98,8.01c9.34,2.14,18.88,11.06,20.07,18.65,1.64,10.47-2.02,21.85-12.6,27.66Z"/>
  <path d="M121.6,139.7c-3.09,27.07-46.73,31.79-77.48,16.44-2.24-1.12-5.53-7.49-3.75-9.05,10.84-9.5,16.52,11.66,54.42,4.83,6.98-1.26,13.71-9.47,13.63-15.43-.09-6.32-7.22-13.18-13.67-14.66l-35.77-8.19c-7.65-1.75-16.51-13.39-17.28-20.37-1.08-9.86,5.26-21.74,14.53-26.69,19.56-10.46,42.11-7.31,61.35,3.04l-5.94,9.16c-17.79-9.67-59.02-10.14-56.74,11.44,2.87,27.18,71.7,5.77,66.71,49.49Z"/>
  <path d="M654.36,160.64c.02,3.86-13.23,4.03-13.25.66l-.44-95.86c-.02-3.74,13.09-4.96,13.11-1.9l.57,97.11Z"/>
  <path d="M477.05,146.01c2.97-2.24,13.51.01,14.51,3.08,1.19,3.68.24,10.61-2.7,13.13-2.5,2.14-9.99,2.42-12.65.59-3.23-2.23-3.79-13.32.84-16.81Z"/>
  <path d="M642.27,20.56c2.89-1.04,11.47.59,13.64,2.72,2.6,2.55.34,10.57-2.74,12.55-3.07,1.97-9.77,1.49-12.68-.71s-1.65-13.32,1.78-14.55Z"/>
</svg>