<svg width="1140" height="197" viewBox="0 0 1140 197" fill="none" xmlns="http://www.w3.org/2000/svg">
<path d="M145.911 77.2584V185.437H82.538V77.2584C82.538 72.3337 78.5451 68.3411 73.6181 68.3411H5.55566V6.64209H221.569V68.3411H154.831C149.904 68.3411 145.911 72.3337 145.911 77.2584Z" fill="black"/>
<path d="M614.757 76.9322V185.111H551.384V76.9322C551.384 72.0075 547.386 68.015 542.464 68.015H474.401V6.31592H690.41V68.015H623.677C618.75 68.015 614.757 72.0075 614.757 76.9322Z" fill="black"/>
<path d="M306.153 6.31543H244.433L298.518 120.464H314.444V185.773H376.497V120.464H391.759L452.482 6.31543H388.44L351.206 64.2509C349.082 67.5569 344.236 67.5219 342.161 64.1854L306.153 6.31543Z" fill="black"/>
<path d="M732.521 186.763H671.798L740.817 6.6416H825.43L896.771 186.763H835.051L788.632 66.1073C786.872 61.5292 780.391 61.536 778.639 66.1181L732.521 186.763Z" fill="black"/>
<path d="M919.389 7.62012V186.746H979.115V99.0199C979.115 93.9425 985.524 91.7204 988.668 95.7089L1060.41 186.746H1133.41V7.62012H1073.68V94.0261C1073.68 99.0666 1067.34 101.311 1064.17 97.3949L991.39 7.62012H919.389Z" fill="black"/>
</svg>
