<?xml version="1.0" encoding="UTF-8"?><svg id="Layer_1" xmlns="http://www.w3.org/2000/svg" viewBox="0 0 1320.6 309.2"><defs><style>.cls-1{fill:#231f20;stroke-width:0px;}</style></defs><path class="cls-1" d="M187.4,47.3c-16.2-7.2-32.8-9.8-63.8-9.9H39.4v230h90c31.7,0,48.6-4.6,64.2-12.8,35.5-19.1,52.4-57.2,52.4-103.5s-23.1-88-58.6-103.8h0ZM177.4,220.8c-13.8,10.8-29.7,14.1-48.3,14.1h-46.9V70h39c20,0,37.9,2.6,53.1,12.8,21,14.1,27.9,39.8,27.9,71.3s-10,54.9-24.8,66.7h0Z"/><path class="cls-1" d="M479.66,211.33c0-32.9-29.58-42.88-57.83-50.19l-18.28-4.65c-20.61-4.99-33.24-9.31-33.24-22.6,0-12.3,12.96-18.61,30.91-18.61,21.27,0,34.9,7.98,36.23,27.59h36.89c-3.32-42.21-34.23-55.51-71.79-55.51s-70.79,15.29-70.79,50.52c0,32.57,26.26,42.21,53.84,49.19l15.62,3.99c24.93,6.32,38.89,10.3,38.89,23.93,0,17.28-17.95,24.6-35.56,24.6-20.94,0-39.88-9.64-40.55-31.58h-37.56c1.66,44.54,37.89,59.49,77.77,59.49,42.88,0,75.45-18.28,75.45-56.17Z"/><path class="cls-1" d="M1095.26,204.35h-38.22c-3.66,17.28-15.95,32.24-38.89,32.24-26.92,0-45.2-19.61-45.2-58.5s17.28-60.16,44.54-60.16c22.93,0,35.56,15.29,38.22,31.24h37.89c-4.65-37.56-33.9-62.15-75.78-62.15-53.18,0-85.42,38.22-85.42,90.4s30.58,90.07,85.09,90.07c43.21,0,71.13-25.92,77.77-63.15Z"/><rect class="cls-1" x="269.3" y="37.5" width="39.22" height="36.75"/><path class="cls-1" d="M544.54,39.16h-39.22v52.85h-23.27v28.25h23.27v104.7c0,16.62,3.66,25.92,11.63,31.58,7.98,5.65,21.6,6.65,38.89,6.65,6.98,0,13.29-.33,20.27-.66v-29.25c-3.32.33-6.65.33-10.3.33-16.62,0-21.27-3.32-21.27-21.6v-91.73h31.91v-28.25h-31.91v-52.85Z"/><path class="cls-1" d="M1187.55,87.02c-51.85,0-85.42,38.22-85.42,90.07s32.9,90.4,87.08,90.4c40.88,0,69.13-21.94,80.1-55.51h-40.55c-4.99,11.3-16.62,24.26-39.22,24.26-25.26,0-45.53-16.62-47.2-48.86h128.63c0-57.17-26.92-100.38-83.42-100.38ZM1142.35,159.81c1.99-24.6,18.95-43.54,44.87-43.54s42.54,18.95,43.21,43.54h-88.08Z"/><path class="cls-1" d="M853.26,87.02c-27.25,0-44.87,13.29-52.85,25.92h-.33v-20.94h-37.56v171.17h39.22v-95.06c0-33.24,14.62-48.53,38.22-48.53s34.9,13.29,34.9,47.86v95.72h39.55v-106.36c0-21.94-4.65-38.89-16.29-51.85-9.64-10.97-24.26-17.95-44.87-17.95Z"/><path class="cls-1" d="M734.71,159.15c0-32.57-3.32-44.87-17.28-56.17-13.29-10.64-32.24-14.96-52.18-14.96-41.55,0-72.12,17.28-73.79,58.16h37.23c0-16.95,10.64-28.92,35.23-28.92,22.27,0,32.9,9.64,32.9,23.6,0,8.97-2.99,14.96-17.28,16.62l-11.63,1.33c-20.27,2.33-44.87,6.98-62.15,17.95-13.29,8.31-21.94,20.94-21.94,38.55,0,31.24,25.92,51.52,63.48,51.52,27.59,0,44.21-10.97,52.51-19.94h.66l1,16.29h36.56v-1c-1.66-2.66-3.32-5.98-3.32-16.62v-86.42ZM697.82,201.36c0,26.26-22.6,36.23-41.88,36.23s-31.58-8.31-31.58-23.93c0-14.62,10.3-20.27,34.23-25.59l26.26-5.65c9.31-1.99,11.3-2.66,12.96-4.32v23.27Z"/><rect class="cls-1" x="269.3" y="97.14" width="39.22" height="166.04"/></svg>