<?xml version="1.0" encoding="UTF-8"?>
<svg id="Layer_1" data-name="Layer 1" xmlns="http://www.w3.org/2000/svg" viewBox="0 0 1012.88 1203.21">
  <path d="M97.53,648.84v-19.58c.89-1.17,1.88-3.41,2.16-5.48,7.82-58.01,59.82-99.13,117.23-94.74,57.47,4.39,101.86,52.66,101.64,110.11-.21,57.62-45.53,105.63-102.97,109.26-57.24,3.62-108.3-37.64-116.07-95.29-.15-1.14-1.52-3.7-2-4.28Z"/>
  <path d="M802.7,254.33c61.33-6.35,114.68,38.75,120.65,98.39,6.05,60.36-38.31,114.65-98.89,120.4-59.73,5.67-113.31-37.5-119.87-97.62-6.5-59.53,36.39-114.77,98.12-121.16Z"/>
  <path d="M798.83,804.84c61.52-8.48,116.42,35.02,124.18,94.98,7.71,59.53-34.62,114.77-94.35,122.87-59.75,8.11-115.36-33.91-123.7-93.9-8.22-59.09,32.77-115.53,93.87-123.95Z"/>
  <path d="M801.46,529.5c61.51-7.07,115.31,37.71,121.82,97.54,6.49,59.68-36.94,113.86-96.58,120.86-60.26,7.08-115.24-36.46-122.07-96.88s35.53-114.48,96.83-121.52Z"/>
  <path d="M434.44,892.43c61.57-6.02,114.45,38.98,120.24,98.81,5.83,60.22-38.54,113.99-98.66,119.84-59.94,5.83-113.4-37.3-120.1-97.04-6.77-60.3,36.53-115.55,98.52-121.61Z"/>
  <path d="M430.16,166.71c67.91-9.75,129.17,46.21,124.78,115.97-3.62,57.5-51.47,102.66-109.3,102.93s-105.79-44.21-110.11-101.6c-4.32-57.36,36.4-108.94,94.64-117.29Z"/>
</svg>