<svg xmlns="http://www.w3.org/2000/svg" width="130" height="28" viewBox="0 0 130 28"><g><g><g><path fill="#c23659" d="M48.153 13.648c-.517 1.882-1.81 2.805-3.618 2.842-1.846.037-3.1-.812-3.691-2.695a10.361 10.361 0 0 1 0-6.349c.553-1.846 1.772-2.695 3.544-2.732 1.845-.037 3.174.85 3.728 2.695.12.406.204.831.273 1.262.22 1.362.227 2.757-.03 4.113a8.81 8.81 0 0 1-.206.864zm6.755-3.027c0-6.608-3.913-10.558-10.41-10.558-6.534 0-10.41 3.95-10.41 10.558.037 6.681 3.84 10.52 10.41 10.52 6.534-.037 10.41-3.913 10.41-10.52z"/></g><g><path fill="#c23659" d="M6.127 5.563v15.098H-.001V.765C.368.728.663.654.959.654c3.986 0 7.973-.037 11.96 0 3.36.037 4.688 1.107 4.799 4.43.184 5.13.037 10.299.037 15.577h-6.128a16.048 16.048 0 0 1-.074-1.365v-8.897c0-.812-.037-1.624-.148-2.4-.258-1.623-1.07-2.325-2.694-2.436-.776-.036-1.588 0-2.584 0z"/></g><g><path fill="#c23659" d="M110.973 14.755c1.92 0 3.618-.037 5.316.037.332 0 .775.332.96.665.923 1.624 4.688 2.288 6.128 1.07.775-.664.738-1.846-.111-2.436-.48-.333-1.034-.517-1.587-.702-2.215-.738-4.467-1.402-6.608-2.251-2.141-.85-3.47-2.4-3.396-4.836.074-2.547 1.329-4.393 3.654-5.316 3.544-1.403 7.125-1.255 10.632.11 1.92.74 3.027 2.253 3.285 4.504h-5.352c-.222 0-.517-.184-.628-.369-1.107-1.735-2.769-1.403-4.356-1.107-.443.074-1.07.701-1.107 1.107-.037.517.258 1.292.701 1.55.738.48 1.624.702 2.473.96 1.81.591 3.618 1.07 5.39 1.698 3.765 1.403 4.836 5.907 2.104 8.897-.628.664-1.403 1.292-2.252 1.661-3.839 1.55-7.715 1.55-11.517-.074-2.141-.886-3.433-2.584-3.729-5.168z"/></g><g><path fill="#c23659" d="M87.4 5.6h-5.278c-.259 0-.591-.184-.776-.406-1.144-1.255-3.1-1.772-4.577-1.033-.406.221-.923.775-.886 1.18.037.518.406 1.256.849 1.514.738.443 1.661.665 2.51.923 1.735.554 3.507 1.108 5.242 1.661 4.688 1.477 4.393 7.31 1.661 9.34-1.255.96-2.88 1.624-4.466 1.993-2.51.59-5.095.443-7.568-.295-2.953-.886-4.688-2.88-4.946-5.722 1.882 0 3.728-.037 5.574.037.221 0 .48.332.627.59.96 1.662 4.578 2.4 6.054 1.182.812-.665.812-1.957-.11-2.51-.665-.406-1.477-.59-2.215-.886-2.142-.775-4.356-1.403-6.424-2.326-4.134-1.809-3.396-7.087-.775-8.896.923-.665 2.03-1.218 3.138-1.477 2.842-.701 5.685-.554 8.49.37 2.141.738 3.47 2.214 3.876 4.761z"/></g><g><path fill="#c23659" d="M92.983 27.15v-4.74c.11-.077.184-.193.221-.193 2.621.194 3.803-1.321 4.54-3.807 1.662-5.594 3.545-11.11 5.28-16.665.258-.854.627-1.204 1.513-1.165 1.735.078 3.47.039 5.427.039-.813 2.486-1.55 4.778-2.326 7.07-1.514 4.583-3.027 9.206-4.54 13.79-.333.97-.739 1.942-1.108 2.874-.738 1.71-1.993 2.68-3.765 2.797-1.698.077-3.396 0-5.242 0z"/></g><g><path fill="#c23659" d="M29.53 20.698h-6.164v-6.607c0-1.477.037-2.953 0-4.43-.185-3.84-1.034-3.913-3.84-4.208-.147-.812-.258-1.625-.48-2.437-.22-.738-.59-1.476-.885-2.14 2.584 0 5.168-.148 7.715.036 1.624.11 2.732 1.292 3.248 2.88.259.849.48 1.735.48 2.62.037 4.578.037 9.155.037 13.733a7.316 7.316 0 0 0-.11.553z"/></g><g><path fill="#c23659" d="M95.175 17.782C93.034 12.134 90.893 6.486 88.678.58c2.178 0 4.171-.037 6.165.037.258 0 .59.369.7.627.96 2.437 1.847 4.873 2.733 7.31.073.258.184.553.11.775-.96 2.842-1.92 5.648-2.88 8.49-.11 0-.22 0-.331-.037z"/></g><g><path fill="#c23659" d="M58.237 13.993V8.825H66.1v5.168z"/></g></g></g></svg>
