<?xml version="1.0" encoding="UTF-8"?>
<svg id="Layer_1" data-name="Layer 1" xmlns="http://www.w3.org/2000/svg" viewBox="0 0 313.63 297.19">
  <defs>
    <style>
      .cls-1 {
        fill-rule: evenodd;
      }
    </style>
  </defs>
  <path class="cls-1" d="M108.88,129.93l29.91,28.01-5.61,5.25-24.3-22.76-24.62,23.06-5.61-5.25,30.22-28.31ZM158.12,129.93h34.36v7.59h-26.54v25.96h-7.82v-33.56ZM225.46,129.93h7.82v33.56h-34.36v-7.59h26.54v-25.96ZM44.14,152.98l24.62-23.06,5.61,5.25-30.22,28.3-29.91-28.01,5.61-5.25,24.3,22.76ZM267.64,132.02h34.36v33.56h-7.82v-25.96h-26.54v-7.59ZM256.9,132.02h7.82v25.97h26.54v7.59h-34.36v-33.56Z"/>
</svg>