<?xml version="1.0" encoding="UTF-8"?>
<svg id="Layer_1" data-name="Layer 1" xmlns="http://www.w3.org/2000/svg" viewBox="0 0 1233.31 340.53">
  <defs>
    <style>
      .cls-1 {
        fill: #0a2e3e;
      }
    </style>
  </defs>
  <path class="cls-1" d="M969.17,274.9l-44.88-62.94c-7.89-1.19-20.38-1.66-28.96-1.6l-.64,63.45-40,.59-.33-195.6,87.58-.64c42.77-.31,74.26,39.85,65.84,81.45-4.25,21-20.12,34.55-38.92,45.49l47.35,67.76-47.05,2.05ZM943.84,172.78c17.5-.36,27.3-19.21,25.55-32.56-1.47-11.18-13.45-25.28-27.03-25.23l-47.23.16.34,58.61,48.37-.98Z"/>
  <path class="cls-1" d="M153.01,271.26c-31.91,4.29-60.97,2.81-92.77,2.61l-.17-195.21h76.94c50.47.02,91,38.95,95.91,86.09,5.14,49.37-26.78,99.37-79.9,106.51ZM164.96,227.29c21.45-11.63,29.52-34.23,28.51-55.25-.85-17.74-10.16-39.18-29.48-48.17-18.78-8.75-40.85-8.51-62.65-6.92l.02,117.5c21.48,2.86,44.27,3.32,63.6-7.16Z"/>
  <path class="cls-1" d="M713.59,79.61c55.8-8.09,102.26,32.96,109.68,83.57,7.82,53.38-30.67,101.8-82.2,109.67-53.06,8.11-100.9-28.19-110.57-78.83-10.15-53.17,26.2-106.16,83.1-114.41ZM783.36,182.66c3.33-36.42-24.23-66.7-56.05-66.64-35.47.07-61.57,30.34-58.01,65.76,3.24,32.28,27.35,54.52,57.96,54.31,28.11-.19,53.17-21.31,56.1-53.43Z"/>
  <polygon class="cls-1" points="393.52 194.31 304.3 195.13 305.18 235.71 403.46 235.79 403.49 273.81 263.21 273.49 263.19 78.59 402.83 78.21 403.64 115.98 305.06 116.01 304.73 156.96 393.28 157.26 393.52 194.31"/>
  <path class="cls-1" d="M524.6,211.49l-44.53,61.89-48.41-.05,68.72-97.26-67.83-96.31c15.98-1.1,30.93-1.24,47.13-.59l137.26,193.13-47.1,2.02-45.24-62.83Z"/>
  <path class="cls-1" d="M1130.98,273.39l-41.11.53-.25-91.52-73.09-103.91c17.43-.75,33.06-.8,48.16.37l65.8,92.17.49,102.35Z"/>
  <path class="cls-1" d="M575.82,136.19c-8.19,7.61-34.42,3.75-47.77,1.52l42-59.45,46.73.59c-13.28,20.1-24.12,35.85-40.96,57.33Z"/>
  <path class="cls-1" d="M1161.78,137.36c-13.2,3.01-33.74,2.19-48.04.44l41.24-59.24,47.04.71-40.24,58.08Z"/>
</svg>