<svg width="94" height="23" viewBox="0 0 94 23" fill="none" xmlns="http://www.w3.org/2000/svg">
<path d="M78.5912 3.77694C77.5214 3.77501 76.7921 3.40558 76.0754 2.50123L74.5977 0.630001V21.7023C74.5977 22.0159 74.8516 22.2699 75.1653 22.2699H78.0226C78.3372 22.2699 78.5912 22.0159 78.5912 21.7023V3.77694Z" fill="white"/>
<path d="M21.563 5.3067C22.4259 5.3067 23.2321 4.88147 23.7209 4.1705L25.1592 2.09819V0.609869C25.1592 0.296234 24.9052 0.0422463 24.5916 0.0422463H21.6428C21.3292 0.0422463 21.0742 0.296234 21.0742 0.609869V5.3067H21.563Z" fill="white"/>
<path d="M24.0028 4.41035C23.4515 5.21464 22.5385 5.69471 21.563 5.69471H21.0742V21.5795C21.0742 21.8931 21.3282 22.1471 21.6418 22.1471H24.5916C24.9052 22.1471 25.1592 21.8931 25.1592 21.5795V2.745L24.0028 4.41035Z" fill="white"/>
<path d="M62.792 19.1492V21.6381C62.792 21.9518 62.538 22.2057 62.2234 22.2057H59.2747C58.961 22.2057 58.707 21.9518 58.707 21.6381V19.1492C58.707 18.8356 58.961 18.5807 59.2747 18.5807H62.2234C62.538 18.5807 62.792 18.8356 62.792 19.1492Z" fill="white"/>
<path d="M58.7959 13.5002C58.7959 12.9672 58.9508 12.4486 59.2433 12.0022L60.8393 9.61051L60.8413 9.61339L61.8832 8.04522L67.0514 0.29958C67.215 0.1139 67.4468 0.000374794 67.6999 0.000374794H70.8786C71.3076 0.000374794 71.4183 0.485258 71.2692 0.734435L63.3561 12.5958C63.0463 13.0682 62.8809 13.6223 62.8809 14.188V15.2338C62.8809 15.5475 62.6259 15.8014 62.3123 15.8014H59.3635C59.0508 15.8014 58.7978 15.5494 58.7959 15.2377V13.5002Z" fill="white"/>
<path d="M50.7117 5.05447e-05H53.8904C54.1963 5.05447e-05 54.4801 0.160717 54.637 0.4224L60.5422 9.30136L58.8662 11.8133C58.6421 12.1539 58.4968 12.533 58.4218 12.9274C58.3727 12.8264 58.3198 12.7263 58.2572 12.6311L50.3211 0.734112C50.171 0.484936 50.2826 5.05447e-05 50.7117 5.05447e-05Z" fill="white"/>
<path d="M15.8672 0.000208378H1.7373L3.16502 0.992104C3.96931 1.54337 4.45035 2.45638 4.45035 3.43192V3.62048H15.8672C16.1809 3.62048 16.4358 3.3665 16.4358 3.05286V0.568793C16.4358 0.254195 16.1809 0.000208378 15.8672 0.000208378Z" fill="white"/>
<path d="M1.41425 11.0591C1.96551 10.2548 2.87756 9.77472 3.85406 9.77472H3.99356V3.62035L3.99741 3.43179C3.99741 2.56881 3.57217 1.76259 2.86024 1.27386L1.02653 7.82013e-05H0.567622C0.253987 7.82013e-05 0 0.254066 0 0.5677V1.53073V3.05273V10.6868V13.0958L1.41425 11.0591Z" fill="white"/>
<path d="M14.3243 10.2101H3.99356V10.2091H3.85406C2.99108 10.2091 2.18486 10.6334 1.69709 11.3454L0 13.7881V21.6107C0 21.9243 0.253987 22.1783 0.567622 22.1783H3.42594C3.73957 22.1783 3.99356 21.9243 3.99356 21.6107V13.8304H14.3243C14.6379 13.8304 14.8929 13.5764 14.8929 13.2628V10.7787C14.8929 10.4641 14.6379 10.2101 14.3243 10.2101Z" fill="white"/>
<path d="M31.2951 3.62045H41.9616L44.0907 0.923767C44.4226 0.505265 44.7584 0.206061 45.1278 0.00017786H31.2951C30.9815 0.00017786 30.7266 0.254165 30.7266 0.5678V3.05187C30.7266 3.36647 30.9815 3.62045 31.2951 3.62045Z" fill="white"/>
<path d="M93.4316 18.7626H91.265C90.6839 18.7626 90.1404 18.4759 89.8113 17.9978L85.9342 12.3533C85.3204 11.5798 84.7162 11.2546 83.8282 11.2229C83.7955 11.2267 79.0371 11.2287 79.0371 11.2287V14.4554H82.9845L87.5216 20.9898C88.0411 21.747 88.9012 22.2001 89.821 22.2001H92.104L92.1088 22.1972H93.4316C93.7453 22.1972 94.0002 21.9423 94.0002 21.6286V19.3312C94.0002 19.0166 93.7453 18.7626 93.4316 18.7626Z" fill="white"/>
<path d="M87.2638 7.27881C87.2638 8.96052 86.193 10.3882 84.697 10.928C85.2665 11.1088 85.7418 11.4677 86.2094 12.0574L87.1406 13.3995C89.5468 12.2383 91.2025 9.85524 91.2025 7.0941C91.2025 3.19386 87.9084 0.0324917 83.8455 0.0324917C83.8455 0.0324917 83.8446 0.0401888 83.8446 0.0421133C83.8282 0.0401888 83.8148 0.0324917 83.7984 0.0324917H78.2059H76.0239H75.2571C75.0801 0.0324917 74.9271 0.119079 74.8232 0.247034L76.4357 2.27893C77.088 3.1015 77.7191 3.42283 78.6831 3.42476L78.7745 3.42572H83.4357C85.5551 3.45554 87.2638 5.15264 87.2638 7.27881Z" fill="white"/>
<path d="M35.7674 18.1201L46.8793 4.22396C46.9813 4.09696 47.6028 3.33981 47.6028 2.49704V0.568083C47.6028 0.254448 47.3488 0.000461578 47.0352 0.000461578H46.5003C45.6565 0.0485649 45.0697 0.378555 44.4684 1.13667L42.5086 3.62074L41.4552 4.92819L41.4177 4.9763H41.4167L31.0273 17.8709C30.958 17.9614 30.8926 18.0422 30.8291 18.1201H35.7674Z" fill="white"/>
<path d="M47.3689 18.5594H30.5779C30.3691 18.8933 30.2373 19.3079 30.2373 20.2084V21.6121C30.2373 21.9257 30.4923 22.1797 30.8059 22.1797H47.3689C47.6825 22.1797 47.9365 21.9257 47.9365 21.6121V19.128C47.9365 18.8134 47.6825 18.5594 47.3689 18.5594Z" fill="white"/>
</svg>
