<?xml version="1.0" encoding="UTF-8"?>
<svg id="Layer_1" data-name="Layer 1" xmlns="http://www.w3.org/2000/svg" viewBox="0 0 313.63 297.19">
  <defs>
    <style>
      .cls-1 {
        fill: #edcfb9;
      }
    </style>
  </defs>
  <path class="cls-1" d="M183.27,36.61v43.84h46.67c.84,0,2.8,1.97,2.8,2.79v46.64h43.02v52.44h-43.02v46.64c0,.83-1.97,2.79-2.8,2.79h-46.67v42.98h-52.49v-42.98h-46.67c-.83,0-2.8-1.97-2.8-2.79v-46.64h-43.45v-52.44h43.45v-46.64c0-.83,1.97-2.79,2.8-2.79h46.67v-43.84h52.49ZM173.8,46.07h-33.56v33.52h33.56v-33.52ZM223.28,89.91H90.78v132.39h132.5V89.91ZM80.88,139.34h-33.56v33.52h33.56v-33.52ZM266.3,139.34h-33.56v33.52h33.56v-33.52ZM173.8,231.75h-33.56v33.52h33.56v-33.52Z"/>
  <path class="cls-1" d="M154.36,130.01c32.7-3.24,39.9,44.69,8.63,51.6-36.39,8.04-44.62-48.04-8.63-51.6ZM154.78,139.46c-21.11,2.45-18.28,35.58,4.13,33.35,21.62-2.15,18.71-36-4.13-33.35Z"/>
</svg>