<?xml version="1.0" encoding="UTF-8"?>
<svg id="Layer_1" data-name="Layer 1" xmlns="http://www.w3.org/2000/svg" viewBox="0 0 375.32 226.72">
  <path d="M263.21,11.45c58.45-.06,103.89,47.01,103.82,103.57-.07,56.35-45.68,103.15-103.35,103.17l-141.28.05c-57.53.02-103.52-45.59-104.32-102.1C17.3,60.19,62.5,11.67,119.97,11.61l143.24-.15ZM265.82,177.73c35.99-.02,62.98-30.91,61.86-64.92-1.14-34.69-29.76-61.3-65.2-61.11l-145.86.78c-34.37.18-59.55,32.51-58.18,64.96,1.4,33.21,28.56,60.41,62.6,60.39l144.78-.09Z"/>
  <path d="M113.77,87.34c16.05-4.04,31.04,5.71,34.68,20.65,3.72,15.26-5.3,30.9-21.29,34.6-14.41,3.33-29.67-4.99-33.82-20.23-3.94-14.49,4.04-30.89,20.43-35.02Z"/>
  <path d="M256.48,87.35c16.06-4.08,31.1,5.6,34.78,20.66s-5.2,30.91-21.3,34.6c-14.3,3.28-29.59-5-33.79-20.21-3.99-14.43,3.94-30.9,20.32-35.06Z"/>
</svg>