<?xml version="1.0" encoding="UTF-8"?>
<svg id="Layer_1" data-name="Layer 1" xmlns="http://www.w3.org/2000/svg" viewBox="0 0 313.63 297.19">
  <defs>
    <style>
      .cls-1 {
        fill: #00a7e3;
        fill-rule: evenodd;
      }
    </style>
  </defs>
  <path class="cls-1" d="M180.69,167.88h-36.7l-84.42,102.2h32.66c3.86,0,7.48-1.69,10-4.58l50.92-58.93c2.29-2.71,4.22-5.3,5.72-7.77,1.63-2.65,2.77-5.6,3.43-8.62.78,3.25,1.93,6.15,3.43,8.62,1.51,2.47,3.43,5.06,5.72,7.77l50.92,58.93c2.53,2.89,6.14,4.58,10,4.58h32.66l-84.42-102.2"/>
  <path class="cls-1" d="M228.96,46.4c-3.86,0-7.48,1.69-10,4.58l-47.42,54.9c-2.29,2.71-4.22,5.3-5.72,7.77-1.63,2.65-2.77,5.6-3.43,8.62-.66-3.07-1.87-5.97-3.43-8.62-1.75-2.71-3.62-5.3-5.72-7.77l-48.15-55.74c-2.05-2.35-5-3.74-8.13-3.74h-33.93l81.11,98.16h36.7l80.99-98.16h-32.84Z"/>
</svg>