<?xml version="1.0" encoding="UTF-8"?>
<svg id="Layer_1" data-name="Layer 1" xmlns="http://www.w3.org/2000/svg" viewBox="0 0 313.63 297.19">
  <defs>
    <style>
      .cls-1 {
        fill-rule: evenodd;
      }
    </style>
  </defs>
  <path class="cls-1" d="M152.76,37.42c-1.62,0-2.43,0-3.14.33-.71.33-1.23.94-2.27,2.16L29.2,178.96c-.61.71-.91,1.07-.91,1.49s.3.78.91,1.49l1.73,2.04c.69.82,1.04,1.23,1.51,1.44.47.22,1.01.22,2.09.22h82.81c1.62,0,2.43,0,3.14-.33s1.23-.94,2.27-2.16L240.91,44.12c.61-.71.91-1.07.91-1.49,0-.42-.3-.78-.91-1.49l-1.73-2.04c-.69-.82-1.04-1.23-1.51-1.44-.47-.22-1.01-.22-2.09-.22h-82.81Z"/>
  <path class="cls-1" d="M219.88,188.14c-1.04-1.23-1.56-1.84-2.27-2.16-.71-.33-1.52-.33-3.14-.33h-82.81c-1.08,0-1.62,0-2.09.22-.47.22-.82.63-1.51,1.44l-1.73,2.04c-.61.71-.91,1.07-.91,1.49s.3.78.91,1.49l55.17,64.93c1.04,1.23,1.56,1.84,2.27,2.17.71.33,1.52.33,3.14.33h82.81c1.08,0,1.62,0,2.09-.22.47-.22.82-.63,1.51-1.44l1.73-2.04c.61-.71.91-1.07.91-1.49s-.3-.78-.91-1.49l-55.17-64.93Z"/>
</svg>