<?xml version="1.0" encoding="UTF-8"?>
<svg id="Layer_1" data-name="Layer 1" xmlns="http://www.w3.org/2000/svg" viewBox="0 0 837.96 165.45">
  <path d="M14.01,96.15V8.57l19.46.15v83.06c1.18,11.31,9,20.34,20.2,22.2,5.48.91,10.75.07,16.43.46l-.06,19.41c-29.2,2.63-49.61-9.46-56.03-37.7Z"/>
  <path d="M380.37,114.53c12.32,0,23.59-9.76,23.67-22.11l.4-57.32,19.4.03-.23,57.38c-.09,22.52-18.83,39.8-40.94,41.53-24.48-.54-43.22,4.68-61.24-16.15-18.59,20.88-36.74,15.61-61.64,16.12-23.16-1.89-40.91-20.48-40.92-43.72l-.02-55.07,19.51-.19-.05,53.89c-.01,14.32,10.27,25.69,24.91,25.65l24.46-.06c12-.03,23.48-9.46,23.56-21.91l.34-57.46,19.38-.05.19,55.9c.05,13.26,11.09,23.56,24.16,23.55h25.05Z"/>
  <path d="M513.73,133.95c-10.08.14-27.82,1.09-36.34-2.18-4.57-1.75-8.21-4.21-12.86-6.9l.32,33.57-19.58.02.29-83.86c.08-22.18,18.72-40.29,40.81-41.33,10.62-.5,20.44-.53,30.91.08,21.86,1.27,38.72,19.16,40.18,40.56.43,6.26.32,11.76.06,17.95-.98,23.65-20.19,41.77-43.81,42.1ZM515.71,114.41c12.59-1.38,21.73-11.06,22.34-23.38.26-5.26.31-10.23-.02-15.57-.75-12.24-10.39-22.29-22.9-22.86-9.23-.43-17.98-.38-27.3-.01-11.81.47-21.62,9.77-22.72,21.47-.58,6.22-.56,12.21-.04,18.43,1,11.88,10.83,21.64,22.7,21.73l27.92.2Z"/>
  <path d="M712.83,92.17c-.33-6.14-.22-11.07-.02-16.86.77-21.99,17.82-40.38,40.18-42.03,10.36-.76,20.42-.28,30.85-.08,8.11.15,14.76,4.52,21.89,8.75l-.29-33.08c6.49-.56,12.56-.31,19.6-.15l-.31,83.81c-.09,23.02-19.97,40.62-42.45,41.38-9.11.31-17.24.14-26.19-.03-23.22-.44-42.01-18.3-43.27-41.7ZM784.38,113.94c11.62-.88,20.34-11.08,20.95-21.99.33-5.89.28-10.94,0-16.77-.57-12.15-10.59-22.18-22.93-22.62-9.28-.33-18.1-.44-27.26.04-13.15.69-22.81,11.52-22.82,24.23v13.5c-.02,11.75,8.94,22.69,21.24,23.61,10.21.77,20.02.8,30.81-.01Z"/>
  <path d="M672,124.77c-7.8,5.52-15.97,9.29-25.65,9.25l-24.27-.11c-21.95-.1-40.61-17.03-42.63-39.2-.69-7.53-.68-14.73-.03-22.34,1.91-22.17,20.83-39.2,43.06-39.31,9.51-.05,17.97-.39,27.41.08,22.6,1.14,41.21,19.58,41.25,42.17l.08,56.74-19.37-.12c-.7-2.4.64-3.99.14-7.16ZM647.55,114.35c11.94-.02,22.32-8.7,23.75-20.46.82-6.71.74-13.25.13-20.12-1-11.23-10.34-20.26-21.71-21.08-9.42-.68-18.37-.4-27.92-.12-12.04.35-22.21,9.99-22.93,21.94-.37,6.19-.42,12,.02,18.08.94,12.95,12.39,21.84,25,21.81l23.66-.05Z"/>
  <path d="M154.64,133.91c-9.21.34-17.14.16-26.02.03-22.38-.34-41.48-17.32-43.18-39.92-.53-7.1-.48-13.67-.01-20.92,1.38-21.23,18.73-38.55,40.22-39.8,10.72-.63,20.9-.66,31.56.03,22.13,1.43,39.08,19.76,40.16,41.39.31,6.16.32,11.54-.02,17.52-1.28,22.92-19.41,40.81-42.7,41.67ZM154.15,114.28c13.61.02,23.69-11.23,23.71-24.12l.02-13.15c.02-12.73-9.63-23.71-22.81-24.37-9.39-.47-18.47-.53-27.91,0-12.13.68-21.83,10.64-22.32,22.58-.24,5.8-.33,10.96-.01,16.7.67,12.08,10.75,22.31,22.87,22.33l26.45.04Z"/>
</svg>