<?xml version="1.0" encoding="UTF-8"?>
<svg id="Layer_1" data-name="Layer 1" xmlns="http://www.w3.org/2000/svg" viewBox="0 0 195.97 145.53">
  <defs>
    <style>
      .cls-1 {
        fill: #009341;
      }
    </style>
  </defs>
  <path d="M41.23,107.83c-.85-1.59-4.64-1.78-6.52-1.56-9.11,1.07-18.53-5.19-18.61-14.78l-.2-25.94c-.07-9.07,6.87-16.04,15.82-16.32l9.52-.3c-1.18-19.56,10.8-32.61,30.39-32.63l84.48-.08c16.51-.02,29.86,11.5,29.85,28.51l-.06,66.66c-.01,15.2-12.43,27.7-27.66,27.68l-90.53-.15c-16.23-.03-27.6-15-26.47-31.1ZM48.03,106.3c-2.22,13.22,6.83,26.19,20.63,26.21l88.52.13c12.07.02,22.18-8.93,22.18-21.32l-.05-67.59c0-12.89-10.97-20.96-23.1-20.95l-85.52.03c-7.37,0-13.7,2.65-17.87,7.79-4.2,5.19-6.1,11.86-4.56,18.54l70.01-.04c9.73,0,17.3,6.46,17.32,16.52l.04,23.8c.02,10.13-7.27,16.95-17.25,16.95l-70.35-.06ZM119.91,99.77c5.43-.54,9.11-4.43,9.12-9.34l.08-25.68c-.58-5.1-4.31-9.06-9.74-9.06H31.88c-5.52.01-9.43,4.69-9.42,9.81l.06,25.01c.01,5.04,4.16,9.24,9.35,9.24l88.04.03Z"/>
  <path class="cls-1" d="M73.65,69.78c4.99-1.31,8.91,1.94,9.97,5.57,1.43,4.89-1.37,9.1-5.59,10.19-4.52,1.17-8.73-.83-10.13-4.96-1.47-4.34.38-9.39,5.75-10.81Z"/>
  <path class="cls-1" d="M104.88,69.76c4.52-1.24,8.76,1.68,9.53,5.31,1.07,5.04-.7,9.44-5.51,10.55-4.4,1.02-8.96-1.06-10.3-5.88-1.07-3.85,1.67-8.72,6.29-9.99Z"/>
  <path class="cls-1" d="M43.18,69.63c4.54-.9,8.62,1.99,9.51,5.77,1.06,4.53-1.79,9.37-5.47,10.21-5.08,1.15-9.38-1.47-10.46-5.84s1.49-9.17,6.43-10.14Z"/>
</svg>