<?xml version="1.0" encoding="UTF-8"?>
<svg id="Layer_1" data-name="Layer 1" xmlns="http://www.w3.org/2000/svg" viewBox="0 0 196.55 229.79">
  <defs>
    <style>
      .cls-1 {
        fill: #3ddece;
      }
    </style>
  </defs>
  <path d="M88.36,214.39h-.56c-2.17-5-1.32-11.87,3.8-15.9l69.89-55.05c2.35-1.85,3.43-4.37,1.47-7.61l-74.79,58.69c-3.13-4.69-1.79-11.69,2.91-15.4l54.26-42.83c-2.52-.62-6.32-.91-7.94-.2l-49.22,38.62c-3.32-5.5-.82-12.31,4.03-16.2l28.15-22.59-87.42-.46c-5.85-.03-11.09-4.23-12.24-10.2h141.94c6.44-.01,11.18,4.76,12.59,9.76,1.64,5.79-.37,11.16-5.16,14.94l-81.73,64.44Z"/>
  <path d="M59.21,93.58l49.42-38.68c2.72,5.82.86,12.18-3.71,15.85l-28.69,23.07,86.62.38c6.35.03,12.2,4.25,12.88,10.28H35.03c-6,0-10.62-2.85-12.84-7.62s-2.07-12,2.75-15.78L108.44,15.39c3.02,4.89,1.42,12-3.47,15.85l-70.47,55.54c-2.02,1.59-2.44,4.41-.82,7.08l74.95-58.79c2.8,5.44,1.51,11.88-3.1,15.53l-54.12,42.76c1.4.75,6.32,1.4,7.8.24Z"/>
  <path class="cls-1" d="M19.89,108.95h145.53c6.2,0,11.23,5.03,11.23,11.23H31.13c-6.2,0-11.23-5.03-11.23-11.23h0Z"/>
</svg>