<?xml version="1.0" encoding="UTF-8"?>
<svg id="Layer_1" data-name="Layer 1" xmlns="http://www.w3.org/2000/svg" viewBox="0 0 142.78 133.28">
  <defs>
    <style>
      .cls-1 {
        fill: #1f7457;
      }
    </style>
  </defs>
  <path class="cls-1" d="M106.9,66.09c12.77-1.26-4.26-18.23,7.07-25.15,4.73-2.89,10.19-1.52,12.92,2.84,8.62,13.78-19.4,15.03-11.49,26.83,4.69,7,3.89,14.1-2.05,18.87-6.45,5.19-15.02,2.74-19.88-4.29-6.3.63-11.59,1.97-17.96,3.76,1.27,17.45-11.38,32.33-27.78,33.7-18.18,1.52-33.69-12.61-33.51-30.01.18-17.72,14.6-31.44,33.78-30.38,1.4-4.97,5.7-13.12,3.24-17.93-5-6.47-8.88-12.3-4.05-18.61,5.31-6.95,12.85-7.05,19.97-2.65,12.26,7.57,12.42-18.72,27.14-11.2,4.85,2.48,5.74,8.36,3.25,12.85-2.97,5.36-9.51,5.07-15.11,1.78-2.7-1.58-10.12,2.06-10.33,5.09-.62,8.96-5.2,12.17-12.7,15.24-3.65,3.04-3.23,11.29-4.49,16.6,8.59,4.8,15.81,10.3,19.47,19.88,6.24-1.24,11.92-2.42,18.01-4.3,1.41-8.12,6.52-12.15,14.5-12.94ZM87.63,16.43c-2.71,1.09-2.76,3.27-1.66,5.7.91,2,3.28,2.54,5.47.63,1.27-1.1,2.22-3.16,1.01-4.98-1.08-1.63-2.87-2.13-4.83-1.35ZM57.02,25.84c-5.11.99-7.12,5.87-5.4,10.05,1.38,3.34,5.22,5.5,8.94,4.34s5.77-4.87,5.15-9.12c-.45-3.15-4.38-6.11-8.69-5.27ZM116.1,46.12c-2.11,1.92-1.04,4.9,1.34,6.29,1.38.8,3.27.8,4.72-1.26s.68-3.89-.58-5c-1.55-1.36-3.86-1.51-5.48-.03ZM37.61,69.08c-14.81,4.64-20.39,19.52-16.44,31.21,4.57,13.5,18.41,19.4,30.23,16.08,14.31-4.02,21.6-17.99,17.5-31.1-3.88-12.43-17.28-20.58-31.29-16.19ZM102.58,72.71c-4.7,1.82-5.5,7.28-3.07,10.94,2,3.02,6.28,3.66,9.12,2.4,4.35-1.93,5.15-5.8,3.62-9.7-1.28-3.26-5.4-5.3-9.67-3.64Z"/>
</svg>