<?xml version="1.0" encoding="UTF-8"?>
<svg id="Layer_1" data-name="Layer 1" xmlns="http://www.w3.org/2000/svg" viewBox="0 0 313.63 297.19">
  <defs>
    <style>
      .cls-1 {
        fill: #7500f4;
      }
    </style>
  </defs>
  <path class="cls-1" d="M190.26,122.4c9.28,9.28-69.01,95.7-95.22,124.19-5.53-3.74-10.91-8.14-15.79-13.18-4.88-4.88-9.28-10.25-13.18-15.79,28.32-26.2,114.91-104.49,124.19-95.22ZM46.87,154.95c-.16,13.51,2.28,26.86,7,39.71,37.11-30.27,128.91-101.89,147.46-83.33,18.55,18.55-53.06,110.19-83.33,147.3,12.7,4.88,26.2,7.16,39.71,7,30.92-45.41,85.29-135.09,54.69-165.53-30.44-30.44-120.12,23.93-165.53,54.85ZM79.1,77.96c-12.37,12.21-21.16,26.69-26.37,42.16,53.71-29.46,136.23-65.59,170.74-31.09,33.53,33.53,1.79,114.1-26.2,168.95,13.51-5.37,26.37-13.51,37.27-24.58,42.97-42.97,42.97-112.63,0-155.6-42.81-42.81-112.47-42.81-155.44.16Z"/>
</svg>