<?xml version="1.0" encoding="UTF-8"?>
<svg id="Layer_1" data-name="Layer 1" xmlns="http://www.w3.org/2000/svg" viewBox="0 0 313.63 297.19">
  <defs>
    <style>
      .cls-1 {
        fill: #4bab85;
      }

      .cls-2 {
        fill: #121b4f;
      }
    </style>
  </defs>
  <circle class="cls-1" cx="229.88" cy="221.76" r="36.99"/>
  <path class="cls-2" d="M260.84,96.88c-9.24,14.29-28.19,20.78-43.96,14-10.27-4.42-16.66-13.16-25.68-19.09-9.85-6.48-22.44-9.49-34.12-9.49-36.53,0-66.14,29.61-66.14,66.14.02,11.1,2.81,22.02,8.13,31.77,5.21,9.53,14.29,15.66,19.18,25.33,5.4,10.68,4.63,24.17-1.33,34.47-6.79,11.71-20.3,19.19-33.82,18.71-13.52-.48-26.49-8.87-32.44-21.03-3.81-7.79-4.81-16.97-2.53-25.34,3.38-12.5,13.31-22.02,19.45-33.42,11.64-21.62,8.38-49.54-5.41-69.86-9.87-14.52-20.01-27.02-13.18-45.56,1.47-3.96,3.62-7.63,6.34-10.86,4.28-5.36,9.93-9.62,16.37-12,7.57-2.78,16.01-2.88,23.74-.66,3.5,1.01,6.76,2.92,9.87,5.13,1.2.78,2.36,1.63,3.46,2.55,2.79,2.13,5.53,4.3,8.29,6.04,24.62,15.47,54.57,17.23,79.28.33,5.93-4.05,11.3-9.01,17.78-12.1,10.43-4.99,23.25-4.49,33.36,1.13,10.11,5.62,17.27,16.15,18.97,27.58.16,1.05.27,2.1.33,3.15.51,8.06-1.57,16.29-5.95,23.08Z"/>
</svg>