<?xml version="1.0" encoding="UTF-8"?>
<svg id="Layer_1" data-name="Layer 1" xmlns="http://www.w3.org/2000/svg" viewBox="0 0 313.63 297.19">
  <defs>
    <style>
      .cls-1 {
        fill: #313130;
      }
    </style>
  </defs>
  <path class="cls-1" d="M101.26,130.77c21.87,0,39.6-17.73,39.6-39.6s-17.73-39.6-39.6-39.6-39.6,17.73-39.6,39.6,17.73,39.6,39.6,39.6Z"/>
  <path class="cls-1" d="M267.75,207.03c-.62-1.71-1.4-3.42-2.17-4.97-7.92-17.24-15.69-23.45-15.69-46.28s7.92-34.79,9.78-37.74c.16-.16.31-.47.62-.78,6.52-7.61,10.25-17.71,9.63-28.58-1.24-19.41-16.93-35.41-36.5-36.96-17.39-1.4-32.62,8.54-39.29,23.14-.93,2.02-1.55,4.04-2.17,6.21-.78,2.95-1.55,5.9-2.8,8.7-5.44,13.36-14.44,33.55-33.86,52.96-29.97,29.97-41.93,33.24-61.81,38.52-1.86.31-3.57.78-5.28,1.4-.62.16-1.09.31-1.71.62-15.53,6.21-26.25,22.21-24.69,40.38,1.55,18.48,18.79,35.1,37.27,36.03,9.94.62,19.1-2.48,26.25-8.08,4.19-3.26,7.77-7.14,10.41-11.8,1.4-2.33,4.5-9.94,5.44-12.58.78-2.64,1.71-5.28,2.95-7.77,7.3-16,13.98-35.57,32.62-50.01,13.82-13.05,25.32-21.28,35.26-26.87.31,5.44.47,11.03.47,16.46,0,17.39-5.13,26.09-11.65,34.94-.78.93-1.55,1.86-2.33,2.95-5.28,7.14-8.08,16.15-7.45,25.78,1.24,19.72,17.24,35.72,36.96,36.96,23.14,1.55,42.4-16.77,42.4-39.6-.31-4.5-1.09-8.85-2.64-13.05Z"/>
</svg>