<svg xmlns="http://www.w3.org/2000/svg" width="500" height="500" version="1.0" viewBox="0 0 375 375"><defs><clipPath id="a"><path d="M108 146h51.828v84H108Zm0 0"/></clipPath><clipPath id="b"><path d="M63 144.113h54v86.575H63Zm0 0"/></clipPath><clipPath id="c"><path d="M42 175.152h26V230H42Zm0 0"/></clipPath></defs><g clip-path="url(#a)"><path fill="#004aad" d="M120.434 168.691c-1.735 6.274-3.477 12.543-5.227 18.883-1.46-1.633-2.805-3.168-4.191-4.656a10.73 10.73 0 0 0-1.68-1.469c-.844-.594-.93-1.262-.633-2.21a1838.81 1838.81 0 0 0 4.922-15.958 1508.593 1508.593 0 0 0 4.773-15.86c.278-.952.665-1.335 1.707-1.316 3.16.075 6.329.055 9.489.008.777-.011 1.082.27 1.304.996 2.832 9.29 5.715 18.563 8.567 27.848 1.957 6.363 3.883 12.742 5.824 19.117 1.367 4.492 2.719 8.985 4.11 13.473 1.78 5.766 3.597 11.527 5.382 17.293.617 1.972 1.805 3.281 3.867 3.77.313.074.543.5.809.761-.324.14-.644.402-.973.406-8.3.028-16.609.028-24.91.032-.199 0-.433.043-.59-.043-.234-.137-.414-.371-.617-.567.227-.156.426-.387.672-.453.606-.164 1.27-.156 1.832-.39 1.41-.594 1.992-1.641 1.617-3.122-1.058-4.129-2.175-8.242-3.297-12.351-2.507-9.137-5.027-18.266-7.546-27.395-1.438-5.203-2.868-10.41-4.313-15.613-.117-.414-.332-.793-.508-1.191-.136 0-.261 0-.39.007Zm0 0"/></g><g clip-path="url(#b)"><path fill="#004aad" d="M72.52 144.113c-.204 1.91-.614 3.817-.567 5.715.102 4.383 2.102 8.05 4.785 11.375 3.344 4.137 7.59 7.211 11.883 10.285 6.2 4.442 12.371 8.942 18.266 13.762 4.593 3.754 7.804 8.672 9.031 14.559 1.687 8.109-1.16 21.066-11.008 26.933-4.664 2.781-9.785 3.95-15.183 4.004-1.887.016-3.778.004-5.665.004-.007-.164-.011-.316-.023-.48 1.113-.145 2.23-.258 3.336-.45 3.633-.617 7.074-1.777 10.004-4.07 5.64-4.402 6.887-10.848 3.164-16.977-3.094-5.093-7.211-9.277-12.031-12.785-4.121-3-8.285-5.949-12.305-9.086-3.668-2.859-6.789-6.265-9.18-10.304-3.965-6.696-4.37-13.723-2.117-21.036 1.285-4.175 3.406-7.808 6.703-10.718.313-.278.657-.528.907-.73Zm0 0"/></g><g clip-path="url(#c)"><path fill="#004aad" d="M61.492 175.203c1.219 3.711 3.434 6.75 5.887 9.656.293.344.43 1.028.316 1.465-1.39 5.262-2.851 10.504-4.285 15.754-1.527 5.594-3.035 11.188-4.562 16.785-.457 1.676-1.059 3.317-1.418 5.008-.625 2.961.578 4.508 3.597 4.883.32.043.61.297.918.453-.32.195-.64.559-.968.563-5.926.039-11.864.039-17.797.015-.328 0-.668-.265-.996-.406.265-.274.484-.656.808-.8 1.852-.798 3.106-2.102 3.692-4.06 1.789-6.05 3.605-12.093 5.406-18.148 2.394-8.05 4.777-16.11 7.183-24.164.704-2.32 1.465-4.629 2.22-7.004Zm0 0"/></g><path fill="#004aad" d="M88.195 226.723c-.453-1.918-.843-3.801-1.332-5.653-2.355-8.922-4.73-17.847-7.097-26.765-.059-.215-.075-.453-.145-.89.805.538 1.5.913 2.098 1.41 3.3 2.73 6.636 5.421 9.832 8.265 2.422 2.156 4.18 4.87 5.472 7.828 1.739 3.984.907 8.168-2.109 11.262-1.965 2.011-4.352 3.62-6.719 4.543Zm-.808-60.621c-.742-.606-1.492-1.196-2.219-1.82-3.555-3.075-6.691-6.473-8.473-10.915-.816-2.039-1.215-4.152-1.093-6.363.039-.7.277-.895.914-.887 1.421.024 2.843.04 4.265-.008.801-.023 1.18.243 1.399 1.063a487.2 487.2 0 0 0 2.988 10.687c.789 2.7 1.64 5.375 2.473 8.063-.09.062-.176.117-.254.18Zm95.16 7.121c0-1.313-.465-2.325-1.387-3.024-.93-.703-2.59-1.441-4.996-2.222-2.402-.774-4.316-1.543-5.726-2.305-3.82-2.059-5.727-4.84-5.727-8.348 0-1.812.508-3.433 1.535-4.86 1.024-1.437 2.492-2.558 4.41-3.359 1.922-.8 4.082-1.203 6.477-1.203 2.406 0 4.547.446 6.43 1.32 1.878.872 3.34 2.102 4.375 3.692 1.046 1.582 1.57 3.387 1.57 5.41h-6.946c0-1.543-.484-2.746-1.453-3.605-.968-.856-2.336-1.285-4.093-1.285-1.703 0-3.028.363-3.973 1.082-.934.714-1.402 1.664-1.402 2.84 0 1.093.55 2.011 1.652 2.757 1.11.735 2.738 1.426 4.875 2.07 3.953 1.192 6.832 2.669 8.637 4.426 1.8 1.762 2.703 3.95 2.703 6.563 0 2.918-1.102 5.207-3.305 6.863-2.203 1.66-5.176 2.488-8.918 2.488-2.586 0-4.945-.472-7.082-1.418-2.129-.957-3.75-2.261-4.86-3.91-1.113-1.644-1.667-3.554-1.667-5.726h6.96c0 3.707 2.216 5.558 6.65 5.558 1.655 0 2.944-.332 3.874-1 .922-.668 1.387-1.601 1.387-2.804Zm44.719-2.391c-.258 3.633-1.594 6.488-4.008 8.57-2.418 2.082-5.594 3.121-9.535 3.121-4.32 0-7.723-1.453-10.203-4.359-2.473-2.914-3.708-6.906-3.708-11.973v-2.07c0-3.226.567-6.078 1.704-8.55 1.144-2.473 2.773-4.364 4.89-5.68 2.125-1.325 4.594-1.989 7.399-1.989 3.882 0 7.015 1.047 9.386 3.125 2.38 2.082 3.758 5.004 4.125 8.766h-6.93c-.179-2.168-.792-3.742-1.84-4.723-1.034-.98-2.616-1.472-4.741-1.472-2.317 0-4.047.832-5.192 2.488-1.148 1.664-1.738 4.234-1.773 7.715v2.539c0 3.64.555 6.305 1.656 7.984 1.102 1.684 2.844 2.52 5.227 2.52 2.136 0 3.73-.489 4.793-1.469 1.054-.977 1.66-2.492 1.82-4.543Zm23.668-1.102h-5.528v12.325h-6.949V148.37h12.523c3.977 0 7.04.895 9.204 2.672 2.16 1.77 3.242 4.277 3.242 7.516 0 2.296-.504 4.207-1.504 5.746-.996 1.535-2.496 2.754-4.512 3.656l7.281 13.777v.317h-7.445Zm-5.528-5.628H251c1.734 0 3.082-.438 4.04-1.317.956-.89 1.437-2.113 1.437-3.676 0-1.59-.45-2.84-1.352-3.742-.902-.91-2.285-1.367-4.145-1.367h-5.574Zm55.414-15.731v22.195c0 3.688-1.16 6.606-3.472 8.75-2.305 2.137-5.453 3.207-9.434 3.207-3.941 0-7.074-1.039-9.387-3.12-2.304-2.083-3.48-4.946-3.523-8.587v-22.445h6.93v22.23c0 2.204.527 3.813 1.586 4.825 1.058 1.015 2.523 1.52 4.394 1.52 3.895 0 5.875-2.055 5.945-6.16V148.37Zm12.313 33.684V148.37h11.808c4.082 0 7.18.785 9.286 2.356 2.109 1.562 3.171 3.851 3.171 6.878 0 1.653-.425 3.106-1.27 4.36-.847 1.262-2.026 2.18-3.538 2.758 1.723.433 3.078 1.308 4.074 2.62 1 1.317 1.504 2.919 1.504 4.81 0 3.242-1.035 5.695-3.11 7.367-2.062 1.66-5.003 2.503-8.831 2.535Zm6.949-14.66v9.082h5.945c1.637 0 2.907-.387 3.825-1.168.91-.778 1.367-1.852 1.367-3.223 0-3.082-1.594-4.649-4.778-4.691Zm0-4.91h5.125c3.508-.055 5.262-1.454 5.262-4.192 0-1.523-.45-2.625-1.336-3.293-.895-.668-2.29-1-4.192-1h-4.859Zm0 0"/><path fill="#fff" d="m170.188 196.984 9.285 23.133 9.27-23.133h4.843v28.36h-3.742v-11.04l.351-11.925-9.304 22.965h-2.871l-9.286-22.914.368 11.875v11.039h-3.743v-28.36Zm51.25 20.961h-11.891l-2.656 7.399h-3.856l10.82-28.36h3.274l10.855 28.36h-3.84Zm-10.754-3.09h9.652l-4.844-13.261Zm37.101-.984h-6.66v11.473h-3.758v-28.36h9.383c3.195 0 5.648.73 7.367 2.188 1.723 1.45 2.586 3.558 2.586 6.332 0 1.77-.476 3.312-1.433 4.625-.95 1.316-2.274 2.297-3.977 2.937l6.664 12.043v.235h-4.008Zm-6.66-3.059h5.742c1.86 0 3.332-.476 4.426-1.433 1.102-.969 1.652-2.262 1.652-3.875 0-1.746-.523-3.09-1.566-4.027-1.05-.934-2.555-1.407-4.527-1.418h-5.727Zm26.675-13.828h3.74v28.36h-3.74Zm37.962 28.36h-3.758l-14.281-21.864v21.864h-3.754v-28.36h3.754l14.332 21.946v-21.946h3.707Zm28.261-13.11H321.73v10.051h14.282v3.059h-18.02v-28.36h17.817v3.075H321.73v9.117h12.293Zm0 0"/></svg>