<?xml version="1.0" encoding="UTF-8"?>
<svg id="Layer_1" data-name="Layer 1" xmlns="http://www.w3.org/2000/svg" xmlns:xlink="http://www.w3.org/1999/xlink" viewBox="0 0 313.63 297.19">
  <defs>
    <style>
      .cls-1 {
        fill: url(#linear-gradient-2);
      }

      .cls-2 {
        fill: url(#linear-gradient-3);
      }

      .cls-3 {
        fill: url(#linear-gradient);
      }
    </style>
    <linearGradient id="linear-gradient" x1="3996.83" y1="8781.5" x2="3775.29" y2="8901.11" gradientTransform="translate(-3684.73 9029.7) scale(1 -1)" gradientUnits="userSpaceOnUse">
      <stop offset="0" stop-color="#8c6be8"/>
      <stop offset=".6" stop-color="#1b83ff"/>
      <stop offset="1" stop-color="#27e09d"/>
    </linearGradient>
    <linearGradient id="linear-gradient-2" x1="3926.17" y1="8904.92" x2="3853.84" y2="8851.84" gradientTransform="translate(-3684.73 9029.7) scale(1 -1)" gradientUnits="userSpaceOnUse">
      <stop offset="0" stop-color="#4d7cf4"/>
      <stop offset=".92" stop-color="#5031a0"/>
    </linearGradient>
    <linearGradient id="linear-gradient-3" x1="3863.8" y1="8845.96" x2="3808.44" y2="8726.54" gradientTransform="translate(-3684.73 9029.7) scale(1 -1)" gradientUnits="userSpaceOnUse">
      <stop offset="0" stop-color="#3c58ef"/>
      <stop offset="1" stop-color="#6338d3"/>
    </linearGradient>
  </defs>
  <path class="cls-3" d="M51.06,226.19c17.46-91.55,84.8-154.85,116.29-175.06,9.16,17.7,19.78,87.27,15.89,134.08-40.72,13.44-101.19,52.12-132.18,40.98Z"/>
  <path class="cls-1" d="M167.35,51.13c64.73,60.55,90.45,149.35,95.21,186.18l-79.32-52.1c3.89-46.81-6.73-116.38-15.89-134.08Z"/>
  <path class="cls-2" d="M262.57,237.31c-135.79,20.09-197.58.96-211.51-11.12,31,11.14,91.46-27.54,132.18-40.98l79.32,52.1Z"/>
</svg>