<?xml version="1.0" encoding="UTF-8"?>
<svg id="Layer_1" data-name="Layer 1" xmlns="http://www.w3.org/2000/svg" viewBox="0 0 972.25 856.35">
  <defs>
    <style>
      .cls-1 {
        fill: #0f110e;
      }
    </style>
  </defs>
  <path class="cls-1" d="M687.01,752.09l-318.78-184.63c-1.96,17.86-2.22,33.88-1.71,54.19l219.5,127.84c-26.13,2.1-56.68,3.76-80.48,2.08l-138.37-78.84-1.05,53.82,40.47,25.18-83.18-.97.07-378.34,242.25-140.32v-55.22s-290.22,167.68-290.22,167.68l-.34,377.3-43.02-22.27.05-379.79,376.69-217.9.96,372.09-156.07,91.35,46.5,28.16,157-90.95.59-377.36,42.96,22.87-.08,379.09-157.98,91.51,48.75,27.4,156.61-90.66.48-377.79,42.9,22.05.05,380.07-156.4,91.51,132.72,78.8-80.85,2.03ZM412.12,539.24l154.51-90.15-.44-167.08-199.54,115.3-1.21,116.75c13.5,10.07,29.94,19.7,46.67,25.18Z"/>
  <path class="cls-1" d="M184.24,669.14l-42.87-21.88-.19-379.98L522.31,46.35c15.56,7.4,25.58,13.16,42.77,25.02l-380.58,220.73-.26,377.04Z"/>
</svg>