<?xml version="1.0" encoding="UTF-8"?>
<svg id="Layer_1" data-name="Layer 1" xmlns="http://www.w3.org/2000/svg" viewBox="0 0 373.79 419.84">
  <defs>
    <style>
      .cls-1 {
        fill: #141b32;
      }
    </style>
  </defs>
  <polygon class="cls-1" points="173.26 419.84 124.61 393.68 124.57 336.35 173.56 363.63 173.26 419.84"/>
  <path class="cls-1" d="M117.06,195.24l-48.43,27.55c-1.54-19.54-2.15-37.96-.97-56.48l48.3-27.05,1.1,55.98Z"/>
  <polygon class="cls-1" points="124.81 190.94 124.13 134.73 172.64 107.08 173.72 163.59 124.81 190.94"/>
  <polygon class="cls-1" points="116.44 387.71 66.76 359.48 68.17 303.77 116.68 330.98 116.44 387.71"/>
  <polygon class="cls-1" points="117.22 260.8 67.82 288.8 67.29 231.66 116.01 204.99 117.22 260.8"/>
  <polygon class="cls-1" points="235.22 325.31 186.24 296.41 234.66 267.52 282.94 296.1 235.22 325.31"/>
  <polygon class="cls-1" points="234.7 127.96 186.07 98.95 234.39 70.17 282.37 98.74 234.7 127.96"/>
  <polygon class="cls-1" points="226.31 328.91 177.74 357.96 128.58 328.81 178.13 300.5 226.31 328.91"/>
  <polygon class="cls-1" points="62.89 160.69 15.02 131.6 62.68 103.18 111.9 131.76 62.89 160.69"/>
  <polygon class="cls-1" points="340.09 263.33 291.13 291.98 243.13 263.11 291.08 234.93 340.09 263.33"/>
  <polygon class="cls-1" points="226.43 65.98 178.16 94.68 128.76 66.39 176.83 37.68 226.43 65.98"/>
  <polygon class="cls-1" points="291.72 161.69 242.97 131.66 291.14 103.17 339.47 131.51 291.72 161.69"/>
  <polygon class="cls-1" points="121.69 325.39 72.16 296.58 120.19 267.56 168.8 295.78 121.69 325.39"/>
  <polygon class="cls-1" points="283.05 230.42 233.95 258.96 186.05 230.37 234.39 201.6 283.05 230.42"/>
  <polygon class="cls-1" points="120.51 127.86 71.97 98.93 120.69 70.37 168.95 98.82 120.51 127.86"/>
  <path class="cls-1" d="M230.39,190.53l-48.46-26.79c-.62-17.23-.36-35.42.28-56.5l47.91,26.11.28,57.19Z"/>
  <polygon class="cls-1" points="58.35 223.05 9.49 195.49 10.12 139.54 58.83 165.91 58.35 223.05"/>
  <polygon class="cls-1" points="287.47 223.02 238.26 195.74 239.02 139.62 286.44 165.57 287.47 223.02"/>
  <polygon class="cls-1" points="296.09 223.09 294.62 167.54 343.36 139.48 344.73 195.43 296.09 223.09"/>
  <path class="cls-1" d="M288.57,359.41l-49.19,28.19-.64-55.89c13.6-8.9,30.72-18.27,47.91-27.3l1.91,55Z"/>
  <path class="cls-1" d="M57.81,287.78l-48.55-26.85,1.1-56.28,47.36,27.19c2.7,15.34,1.84,35.43.1,55.95Z"/>
  <polygon class="cls-1" points="58.6 354.69 9.65 327.43 9.91 270.62 59.09 298.18 58.6 354.69"/>
  <polygon class="cls-1" points="296.31 354.22 295.35 298.43 343.81 270.67 344.21 327.9 296.31 354.22"/>
  <polygon class="cls-1" points="182.28 420.44 181.6 363.36 230.49 336.62 231.08 392.65 182.28 420.44"/>
  <polygon class="cls-1" points="226.73 263.36 182.21 288.47 182.22 238.17 226.73 263.36"/>
</svg>