<?xml version="1.0" encoding="UTF-8"?>
<svg id="Layer_1" data-name="Layer 1" xmlns="http://www.w3.org/2000/svg" xmlns:xlink="http://www.w3.org/1999/xlink" viewBox="0 0 313.63 297.19">
  <defs>
    <style>
      .cls-1 {
        fill: url(#linear-gradient-2);
      }

      .cls-2, .cls-3 {
        fill: #abc7ff;
      }

      .cls-4 {
        fill: url(#linear-gradient-3);
      }

      .cls-3 {
        fill-rule: evenodd;
      }

      .cls-5 {
        fill: url(#linear-gradient);
      }
    </style>
    <linearGradient id="linear-gradient" x1="5784.52" y1="-10104.47" x2="5872.44" y2="-10107.36" gradientTransform="translate(-5661.78 -9936.76) scale(1 -1)" gradientUnits="userSpaceOnUse">
      <stop offset="0" stop-color="#006cfa"/>
      <stop offset="1" stop-color="#00bdff"/>
    </linearGradient>
    <linearGradient id="linear-gradient-2" x1="5784.76" y1="-10105" x2="5872.68" y2="-10107.89" xlink:href="#linear-gradient"/>
    <linearGradient id="linear-gradient-3" x1="5784.1" y1="-10104.35" x2="5873.05" y2="-10107.27" gradientTransform="translate(-5661.78 -9936.76) scale(1 -1)" gradientUnits="userSpaceOnUse">
      <stop offset="0" stop-color="#006fff"/>
      <stop offset=".16" stop-color="#037ffa"/>
      <stop offset=".48" stop-color="#0babef"/>
      <stop offset=".92" stop-color="#19f1dd"/>
      <stop offset="1" stop-color="#1cffda"/>
    </linearGradient>
  </defs>
  <path class="cls-2" d="M177.32,31.15l-4.54,28.83c41.62,7.54,73.29,43.99,73.29,87.71,0,49.17-40.04,89.17-89.26,89.17s-89.26-40-89.26-89.17c0-43.72,31.67-80.17,73.29-87.71l-4.53-28.83c-55.58,9.73-97.97,58.27-97.97,116.54,0,65.26,53.15,118.35,118.47,118.35s118.47-53.09,118.47-118.35c0-58.27-42.38-106.8-97.96-116.54Z"/>
  <path class="cls-3" d="M156.81,80.48s18.35,25.61,34.5,50.15c13.93,21.16,17.99,47.3.8,65.91-9.5,10.29-22.32,15.3-35.12,15.33,0,0-.02,0-.02,0,0,0-.02,0-.03,0h0s-.03,0-.04,0c-.01,0-.03,0-.04,0h-.03s0,0-.01,0h0s-.01,0-.02,0c0,0-.01,0-.02,0h0s0,0-.01,0h-.03s-.03,0-.04,0c-.01,0-.03,0-.04,0h0s-.02-.01-.03-.01c0,0-.02,0-.02,0-12.8-.03-25.63-5.04-35.12-15.33-17.19-18.62-13.13-44.75.8-65.91,16.15-24.53,34.5-50.14,34.5-50.15h0s0,0,0,0ZM165.99,143.64c3.13-2.87,7.27-5.3,11.38-4.94.57.05,1.14.15,1.71.32,9.53,2.76,13.37,18.68,13.1,27.06-.63,19.13-16.66,34.13-35.81,33.51-.96-.03-1.75-.1-2.45-.19-8.84-.64-17.4-4.49-23.67-11.75-5.37-6.22-7.76-13.56-7.74-21.06,17.4.93,31.19-11.69,43.12-22.62.12-.11.24-.22.36-.33Z"/>
  <path class="cls-5" d="M177.65,138.73c-4.11-.36-8.25,2.07-11.38,4.94-12.02,11-25.91,23.89-43.49,22.95-.02,7.5,2.36,14.85,7.74,21.06,6.27,7.26,14.83,11.11,23.67,11.75.7.09,1.49.16,2.45.19,19.15.63,35.19-14.38,35.82-33.51.27-8.38-3.56-24.3-13.1-27.06-.57-.16-1.14-.27-1.71-.32Z"/>
  <path class="cls-1" d="M177.88,139.26c-4.11-.36-8.25,2.07-11.38,4.94-12.02,11-25.91,23.89-43.49,22.95-.02,7.5,2.36,14.85,7.74,21.06,6.27,7.26,14.83,11.11,23.67,11.75.7.09,1.49.16,2.45.19,19.15.63,35.19-14.38,35.81-33.51.28-8.38-3.56-24.3-13.1-27.06-.57-.16-1.14-.27-1.71-.32Z"/>
  <path class="cls-4" d="M177.87,138.31c-4.16-.36-8.34,2.09-11.51,4.99-12.16,11.11-26.22,24.14-44,23.19-.02,7.58,2.39,15,7.83,21.28,6.34,7.33,15,11.23,23.95,11.87.71.09,1.51.16,2.48.2,19.38.63,35.6-14.52,36.23-33.86.28-8.47-3.61-24.55-13.25-27.34-.57-.17-1.15-.27-1.73-.32h0Z"/>
</svg>