<?xml version="1.0" encoding="UTF-8"?>
<svg id="Layer_1" data-name="Layer 1" xmlns="http://www.w3.org/2000/svg" viewBox="0 0 313.63 297.19">
  <defs>
    <style>
      .cls-1 {
        fill: #f75c03;
      }

      .cls-2 {
        opacity: .6;
      }

      .cls-3 {
        fill: #e6d220;
      }

      .cls-4 {
        fill: #b6637a;
      }

      .cls-5 {
        fill: #9710ff;
      }

      .cls-6 {
        fill: #1670ff;
      }

      .cls-7 {
        fill: #ed3770;
      }

      .cls-8 {
        fill: #3ab83f;
      }

      .cls-9 {
        fill: #5ab28d;
      }
    </style>
  </defs>
  <g id="Round-3">
    <g id="onLight-Copy">
      <g id="Group" class="cls-2">
        <path id="Path" class="cls-6" d="M87.07,54.13c-7.55-12.45-23.44-16.27-35.49-8.46-12.05,7.78-15.74,24.2-8.18,36.65l97.18,160.55c7.55,12.45,23.44,16.27,35.49,8.46,12.05-7.78,15.74-24.2,8.18-36.65L87.07,54.13Z"/>
      </g>
      <g id="Group-2" data-name="Group" class="cls-2">
        <path id="Path-2" data-name="Path" class="cls-5" d="M140.55,54.13c7.55-12.45,23.44-16.27,35.49-8.46,12.05,7.78,15.74,24.2,8.18,36.65l-97.18,160.55c-7.55,12.45-23.44,16.27-35.49,8.46-12.05-7.78-15.74-24.2-8.18-36.65L140.55,54.13Z"/>
      </g>
      <g id="Group-3" data-name="Group" class="cls-2">
        <path id="Path-3" data-name="Path" class="cls-8" d="M205.42,107.36c7.55-12.45,23.44-16.27,35.49-8.46,12.05,7.78,15.74,24.2,8.18,36.65l-64.96,107.32c-7.55,12.45-23.44,16.27-35.49,8.46-12.05-7.78-15.74-24.2-8.18-36.65l64.96-107.32Z"/>
      </g>
      <g id="Group-4" data-name="Group" class="cls-2">
        <path id="Path-4" data-name="Path" class="cls-3" d="M184.22,54.13c-7.55-12.45-23.44-16.27-35.49-8.46-12.05,7.78-15.74,24.2-8.18,36.65l97.18,160.55c7.55,12.45,23.44,16.27,35.49,8.46,12.05-7.78,15.74-24.2,8.18-36.65L184.22,54.13Z"/>
      </g>
      <path id="Path-5" data-name="Path" class="cls-7" d="M65.22,255.42c-14.24,0-25.75-11.93-25.75-26.61s11.54-26.61,25.75-26.61,25.75,11.93,25.75,26.61-11.54,26.61-25.75,26.61Z"/>
      <path id="Path-6" data-name="Path" class="cls-6" d="M65.22,94.84c-14.24,0-25.75-11.93-25.75-26.61s11.54-26.61,25.75-26.61,25.75,11.93,25.75,26.61-11.54,26.61-25.75,26.61Z"/>
      <path id="Path-7" data-name="Path" class="cls-8" d="M259.55,94.87c-14.21,0-25.75-11.93-25.75-26.61s11.54-26.61,25.75-26.61,25.75,11.93,25.75,26.61-11.54,26.61-25.75,26.61Z"/>
      <path id="Path-8" data-name="Path" class="cls-1" d="M259.52,255.39c-14.21,0-25.75-11.9-25.75-26.58s11.54-26.58,25.75-26.58,25.75,11.9,25.75,26.58-11.54,26.58-25.75,26.58Z"/>
      <path id="Path-9" data-name="Path" class="cls-4" d="M163.3,41.9h-2.1c-.33,0-.69.03-1.02.06h-.03c-7.82.68-15.23,5.02-19.69,12.42l-.63,1.05c-4.44,8.21-4.56,18.59.63,27.14l21.85,36.09,21.85-36.09c5.16-8.52,5.07-18.93.63-27.11l-.63-1.05c-4.77-7.78-12.65-12.18-20.86-12.52Z"/>
      <path id="Path-10" data-name="Path" class="cls-9" d="M161.92,255.57h1.74c.12,0,.24,0,.36-.03.33-.03.69-.03,1.02-.06h.03c7.79-.71,15.2-5.08,19.66-12.52l.63-1.05c4.41-8.21,4.47-18.62-.72-27.11l-22-36-21.7,36.19c-5.13,8.55-5.01,18.93-.51,27.14l.66,1.05c4.74,7.71,12.65,12.05,20.83,12.39Z"/>
    </g>
  </g>
</svg>