<?xml version="1.0" encoding="UTF-8"?>
<svg id="Layer_1" data-name="Layer 1" xmlns="http://www.w3.org/2000/svg" viewBox="0 0 1008.26 727.5">
  <defs>
    <style>
      .cls-1 {
        fill: #f3a503;
      }

      .cls-2 {
        fill: #021430;
      }
    </style>
  </defs>
  <path class="cls-2" d="M839.52,234.23l-65.53,186.06c-31.89,90.57-130.25,136.84-221.04,105.46l-254.91-88.1c-18.67-5.77-6.46-37.36,10.26-37.16l7.16-7.58,1.61.55,266.53,90.71c99.02,19.84,147.59-57.33,166.53-145.03l3.47-2.65,9.07-6.92c-13.21-7.48.88-29.67,12.88-33.95-.19-5.08,8.06-9.84,7.11-19.71l-255.51-89.72c-97.67-34.29-205.46,11.73-241.63,104.31-22.59,57.84-45.82,115.54-65.57,178.18-13.4-16.23-15.52-29.89-25.01-46.24l47.37-134.9c41.29-117.56,171.97-180.89,290.41-139.91l257.7,89.17c6.41,2.22,8.21-2.88,9.48-5.69,2.85-6.31-.82-12.39-8.37-15l-254.13-87.85c-127.62-44.12-267.98,24.67-313.37,150.82l-40.85,113.54c-36.62-51.13-16.6-58.96-4-102.71,46.3-160.65,216.25-253.01,375.04-197.08l259.92,91.55c13.27,10.11,16.68,35.31,25.38,49.85Z"/>
  <path class="cls-1" d="M892.8,440.67c-47.23,159.88-217.02,251.47-374.92,196.33l-186.51-65.12c-25.63-8.95-52.55-15.16-75.41-28.13l-26.11-45.67c29.28-64.56,44.56-132.87,68.9-196.85-1-2.53-1.52-5.11-1.65-7.75,1.82,1.67,2.86,4.44,1.79,7.39,19.63-51.11,75.89-91.72,126.63-101.95,25.12-5.06,54.51-7.65,76.43.09l273.6,96.61c.49,13-9.84,23.09-12.88,33.95l-6.11,7.94-2.96-1.02-253.67-87.5c-102.31-28.19-159.01,48.69-178.78,141.19l-4.08,3.28-8.77,7.03c-3.44,12.04-14.08,22.98-10.26,37.16-11.49.49-4.28,15.08-8.13,19.16,7.68,10.52.32,34.72-13.75,34.88-1.21,3.9-8.78,14.55-4.25,17.93,99.52,33.19,193.23,75.38,296.32,99.28,104.38,24.2,212.71-33.91,263.67-124.4,24.24-43.03,33.53-86.51,50.17-131.08,2.52-6.75,6.22-13.5,12.48-13.55,1.37,10.91,14.36,30.03,15.2,42.93,1.41,21.82-11.08,38-16.95,57.87Z"/>
  <path class="cls-2" d="M876,310.72l-48.61,134.75c-41.11,113.93-169.07,178.01-284.8,138.1l-266.43-91.88c2.77-8.9,6.84-27.56,13.75-34.88l262.09,89.33c101.1,34.46,207.34-23.62,242.59-123.38l56.62-160.27c12.45,16.56,19.1,32.28,24.79,48.23Z"/>
</svg>