<?xml version="1.0" encoding="UTF-8"?>
<svg id="Layer_1" data-name="Layer 1" xmlns="http://www.w3.org/2000/svg" viewBox="0 0 313.63 297.19">
  <path d="M187.46,47.36c-8.06-8.05-18.99-12.58-30.38-12.58s-22.32,4.52-30.38,12.58L55.58,118.21c-8.05,8.06-12.58,18.99-12.58,30.38s4.52,22.32,12.58,30.38l70.85,70.85c8.06,8.05,18.99,12.58,30.38,12.58s22.32-4.52,30.38-12.58l70.85-70.85c8.05-8.06,12.58-18.99,12.58-30.38s-4.52-22.32-12.58-30.38l-70.59-70.85ZM238.15,158.81l-70.85,71.12c-2.68,2.66-6.31,4.15-10.08,4.15s-7.4-1.49-10.08-4.15l-71.12-71.12c-2.66-2.68-4.15-6.31-4.15-10.08s1.49-7.4,4.15-10.08l44.32-44.31,26.54-26.54c2.68-2.66,6.31-4.15,10.08-4.15s7.4,1.49,10.08,4.15l70.85,70.85c1.37,1.29,2.46,2.85,3.21,4.57.75,1.72,1.16,3.58,1.18,5.46.02,1.88-.33,3.75-1.04,5.49-.71,1.74-1.76,3.32-3.09,4.65Z"/>
  <path d="M162.52,93.54c-.72-.75-1.58-1.36-2.54-1.77-.96-.41-1.99-.62-3.03-.62s-2.07.21-3.03.62c-.96.41-1.82,1.01-2.54,1.77l-49.62,49.62c-.75.72-1.36,1.58-1.77,2.54-.41.96-.62,1.99-.62,3.03s.21,2.07.62,3.03c.41.96,1.01,1.82,1.77,2.54l49.62,49.62c3.18,3.18,7.96,3.18,11.15,0l49.62-49.62c3.18-3.18,3.18-7.96,0-11.15l-49.62-49.62Z"/>
</svg>