<?xml version="1.0" encoding="UTF-8"?>
<svg id="Layer_1" data-name="Layer 1" xmlns="http://www.w3.org/2000/svg" viewBox="0 0 846.28 810.87">
  <defs>
    <style>
      .cls-1 {
        fill: #356cb3;
      }

      .cls-2 {
        fill: #b0cb25;
      }
    </style>
  </defs>
  <path class="cls-1" d="M714.06,236.25l-266.63,159.82c-18.58,11.13-40.84,7.08-51.86-12.01-9.56-16.56-4.46-39.64,14.5-49.62l239.06-143.36-69.53-40.46-271.57,162.75c-18.03,10.8-38.64,8.59-50.61-7.9-12.04-16.59-8.41-40.21,9.79-51.71l240.67-144.16-55.65-32.3L169.25,240.17c-17.11,9.84-38.28-.09-46.47-15.24-8.6-15.92-4.99-37.6,12.07-47.46L430.72,6.4c14.86-8.59,28.35-8.5,43.15.06l294.92,170.41c10.49,6.06,17.26,16.66,17.26,29.26l.1,345.25c0,14.14-6.95,25.02-18.85,31.89l-296.45,171.05c-11.42,6.59-24.46,7.29-35.97.66l-297.45-171.49c-17.64-10.17-23.87-30.31-15.48-47.72,8.55-17.74,29.89-25.16,48.85-16.13l281.46,162.47,262.06-151.23-.26-294.63Z"/>
  <path class="cls-2" d="M132.71,285.68c53.22-5.18,97.5,33.56,103.03,83.4,5.83,52.61-32.3,98.74-83.45,104.24-52.1,5.6-98.12-31.47-104.12-82.5-6.11-51.98,30.58-99.89,84.54-105.14Z"/>
</svg>