<?xml version="1.0" encoding="UTF-8"?>
<svg id="Layer_1" data-name="Layer 1" xmlns="http://www.w3.org/2000/svg" viewBox="0 0 1086.48 958.09">
  <defs>
    <style>
      .cls-1 {
        fill: #06112d;
      }
    </style>
  </defs>
  <path class="cls-1" d="M573.83,126.17c210.42-10.8,368.85,152.26,376.87,343.18,8.42,200.62-145.8,364.2-342.14,374.69-195.86,10.46-362.2-140.08-376.26-330.22-14.81-200.33,130.47-376.81,341.53-387.65ZM862.52,325.94l-256.6.44c-99.91.17-194.41,88.72-180.08,188.63,3.76,26.25,4.41,50.21-2.06,64.46s-63.15,6.83-61.41-8.79l6.03-54.09c14.66-131.53,103.94-232.5,239.05-236.08l213.81-5.67c-108.02-128.44-289.36-134.64-410.79-47.48-132.66,95.23-172.34,266.41-92.39,414.22l269.6-.87c109.96-.35,194.56-112.84,166.96-215.94-5.5-20.56,1.63-53.14,16.39-56.33,11.8-2.55,50.48,1.94,49.38,13.98l-4.93,53.8c-11.73,128.11-89.96,246.98-228.51,251l-223.47,6.48c103.53,130.72,288.45,133.99,408.02,48.49,133.74-95.63,173.51-270.34,90.99-416.26Z"/>
  <path class="cls-1" d="M554.35,369.63c60.97-22.29,29.46,93.16,74.05,93.27l75.59.18c24.3,51.63-21.05,121.47-77.52,136.21-66.2,17.28-121.08-14.49-149.9-77.53-25.75-56.32,26.63-133.43,77.79-152.14Z"/>
</svg>