<?xml version="1.0" encoding="UTF-8"?>
<svg id="Layer_1" data-name="Layer 1" xmlns="http://www.w3.org/2000/svg" xmlns:xlink="http://www.w3.org/1999/xlink" viewBox="0 0 519.49 413.62">
  <defs>
    <style>
      .cls-1 {
        fill: url(#linear-gradient);
      }
    </style>
    <linearGradient id="linear-gradient" x1="31.88" y1="204.91" x2="461.2" y2="204.91" gradientUnits="userSpaceOnUse">
      <stop offset="0" stop-color="#208ecc"/>
      <stop offset="1" stop-color="#192844"/>
    </linearGradient>
  </defs>
  <path class="cls-1" d="M461.2,146.38l-.03,100.23c-.02,9.99-8,16.52-15.64,19.71-8.19,3.43-16.57,3.45-24.84-1.58-5.25-3.18-11.76-10.07-11.72-18.37l.52-91.47c.05-10.69-.9-22.54-5.89-31.7-9.34-17.17-24.56-29.98-42.75-35.5-11.39-3.45-26.38-3.83-36.8-1.3-16.91,4.1-31.2,14.66-41.84,26.95-8.92,10.32-13.49,23.23-13.54,36.73l-.47,116.05c-.1,23.54-9.79,44.27-23.78,61.38-7.54,9.19-14.69,15.72-23.71,22.04-8.32,5.84-15.32,9.64-24.13,13.24-11.57,4.72-21.66,8.05-33.46,8.69-9.69.53-18.64,1.45-27.98,1.08-10.9-.42-19.31-3.79-28.41-6.24-8.49-2.27-14.01-6.39-20.86-9.69-7.85-3.8-12.17-9.12-18.11-13.72-8.67-6.72-13.19-14.56-18.57-22.89-16.47-25.43-18.12-51.14-17.04-80.55.45-12.16,8.8-20.24,19.19-22.86,8.04-2.02,12.36-.43,18.44,2.07,24.81,10.17,7.84,38.53,18.37,67.1,4.32,11.72,11.67,22.53,21.01,29.36,7,5.14,17.24,8.39,25.08,9.55.28.03.57.08.85.12,9.2,1.2,20.09,1.27,28.08-.97,11.77-3.3,23.91-8.17,32.11-16.02,10.8-10.32,20.71-24.74,21.61-39.43.05-.7.07-1.42.07-2.12l.05-116.07c.02-25.46,9-47.69,24.39-66.11,11.09-13.26,22.38-24.24,37.2-31.6,14.76-7.32,29.33-13.39,45.25-13.86,13.41-3.25,25.91-.1,38.18,1.3,17.24,1.98,31.81,8.7,45.42,17.17,15.79,9.82,29,22.19,38.02,37.8,9.27,16.02,15.72,32.86,15.72,51.49Z"/>
</svg>